<?xml version="1.0" encoding="UTF-8" standalone="no"?>
<!DOCTYPE svg  PUBLIC '-//W3C//DTD SVG 1.1//EN'  'http://www.w3.org/Graphics/SVG/1.1/DTD/svg11.dtd'>
<svg xmlns="http://www.w3.org/2000/svg">
<defs>
<font id="Gotham-Medium" horiz-adv-x="400">
<font-face underline-position="-50" font-weight="350" descent="-200" panose-1="0 0 0 0 0 0 0 0 0 0" units-per-em="1000" unicode-range="U+0020-FB04" bbox="-223 -275 1180 1008" x-height="528" underline-thickness="50" font-family="Gotham" ascent="800" cap-height="700"/>
<missing-glyph d="M250 240l-179 -390h358zM450 676l-172 -376l172 -376v752zM50 -76l172 376l-172 376v-752zM71 750l179 -390l179 390h-358zM0 -200v1000h500v-1000h-500z" horiz-adv-x="500"/>
<glyph glyph-name="f_f" horiz-adv-x="752" unicode="ff" d="M103 0v424h-67v101h67v39q0 87 43 130q42 42 119 42q51 0 98 -14v-102q-39 13 -71 13q-70 0 -70 -80v-29h140v-100h-138v-424h-121zM479 0v424h-67v101h67v39q0 87 43 130q42 42 119 42q51 0 98 -14v-102q-39 13 -71 13q-70 0 -70 -80v-29h140v-100h-138v-424h-121z"/>
<glyph glyph-name="fi" horiz-adv-x="662" unicode="fi" d="M454 609v115h130v-115h-130zM459 0v528h121v-528h-121zM103 0v424h-67v101h67v39q0 87 43 130q42 42 119 42q51 0 98 -14v-102q-39 13 -71 13q-70 0 -70 -80v-29h140v-100h-138v-424h-121z"/>
<glyph glyph-name="fl" horiz-adv-x="662" unicode="fl" d="M459 0v730h121v-730h-121zM103 0v424h-67v101h67v39q0 87 43 130q42 42 119 42q51 0 98 -14v-102q-39 13 -71 13q-70 0 -70 -80v-29h140v-100h-138v-424h-121z"/>
<glyph glyph-name="f_f_i" horiz-adv-x="1038" unicode="ffi" d="M830 609v115h130v-115h-130zM835 0v528h121v-528h-121zM103 0v424h-67v101h67v39q0 87 43 130q42 42 119 42q51 0 98 -14v-102q-39 13 -71 13q-70 0 -70 -80v-29h140v-100h-138v-424h-121zM479 0v424h-67v101h67v39q0 87 43 130q42 42 119 42q51 0 98 -14v-102 q-39 13 -71 13q-70 0 -70 -80v-29h140v-100h-138v-424h-121z"/>
<glyph glyph-name="f_f_l" horiz-adv-x="1038" unicode="ffl" d="M835 0v730h121v-730h-121zM103 0v424h-67v101h67v39q0 87 43 130q42 42 119 42q51 0 98 -14v-102q-39 13 -71 13q-70 0 -70 -80v-29h140v-100h-138v-424h-121zM479 0v424h-67v101h67v39q0 87 43 130q42 42 119 42q51 0 98 -14v-102q-39 13 -71 13q-70 0 -70 -80v-29h140 v-100h-138v-424h-121z"/>
<glyph glyph-name=".notdef" d="M250 240l-179 -390h358zM450 676l-172 -376l172 -376v752zM50 -76l172 376l-172 376v-752zM71 750l179 -390l179 390h-358zM0 -200v1000h500v-1000h-500z" horiz-adv-x="500"/>
<glyph glyph-name=".null" horiz-adv-x="0"/>
<glyph glyph-name="nonmarkingreturn" horiz-adv-x="333"/>
<glyph glyph-name="space" horiz-adv-x="300" unicode=" "/>
<glyph glyph-name="exclam" horiz-adv-x="302" unicode="!" d="M85 0v138h133v-138h-133zM118 222l-38 443v35h142v-35l-37 -443h-67z"/>
<glyph glyph-name="quotedbl" horiz-adv-x="487" unicode='&quot;' d="M60 401l23 299h138v-5l-98 -294h-63zM280 401l23 299h137v-5l-98 -294h-62z"/>
<glyph glyph-name="numbersign" horiz-adv-x="700" unicode="#" d="M282 442l-31 -180h167l31 180h-167zM624 265v-104h-119l-27 -161h-107l27 161h-163l-27 -161h-107l27 161h-89v104h107l30 174h-100v104h118l27 157h107l-27 -157h163l27 157h107l-27 -157h90v-104h-108l-30 -174h101z"/>
<glyph glyph-name="dollar" horiz-adv-x="642" unicode="$" d="M193 515q0 -33 20.5 -54.5t75.5 -38.5v177q-47 -4 -71.5 -26.5t-24.5 -56.5v-1zM467 189q0 34 -21.5 55.5t-77.5 38.5v-182q48 5 73.5 27.5t25.5 58.5v2zM560 622l-56 -94q-69 51 -136 65v-192q114 -29 165.5 -77t51.5 -128v-2q0 -81 -58.5 -133t-154.5 -61v-98h-87v100 q-132 15 -236 99l64 92q89 -73 176 -88v197q-113 29 -163.5 75.5t-50.5 129.5v2q0 79 57.5 131t152.5 60v58h87v-60q102 -13 188 -76z"/>
<glyph glyph-name="percent" horiz-adv-x="849" unicode="%" d="M637 69q34 0 54.5 29t20.5 71v2q0 43 -22 72.5t-55 29.5q-34 0 -54.5 -29t-20.5 -71v-2q0 -43 22 -72.5t55 -29.5zM635 -8q-72 0 -118 51.5t-46 125.5v2q0 75 46.5 127t119.5 52q72 0 118 -51.5t46 -125.5v-2q0 -74 -46.5 -126.5t-119.5 -52.5zM394 372l237 328h99 l-276 -373l-236 -327h-99zM212 631q-34 0 -54.5 -29t-20.5 -71v-2q0 -43 22 -72.5t55 -29.5q34 0 54.5 29t20.5 71v2q0 43 -22 72.5t-55 29.5zM212 350q-72 0 -118 51.5t-46 125.5v2q0 75 46.5 127t119.5 52t118.5 -51.5t45.5 -125.5v-2q0 -75 -46.5 -127t-119.5 -52z"/>
<glyph glyph-name="ampersand" horiz-adv-x="696" unicode="&amp;" d="M280 92q68 0 132 61l-156 159q-93 -40 -93 -116v-2q0 -44 33 -73t84 -29zM298 425q110 40 110 109v2q0 35 -22 57t-57 22q-37 0 -60.5 -23.5t-23.5 -60.5v-2q0 -46 53 -104zM575 -14l-93 95q-98 -91 -214 -91q-100 0 -164.5 55t-64.5 145v2q0 132 149 196q-58 74 -58 146 v2q0 73 55 124.5t146 51.5q82 0 134 -48.5t52 -120.5v-2q0 -124 -154 -182l120 -122q38 57 75 135l93 -49q-49 -97 -95 -159l111 -112z"/>
<glyph glyph-name="quotesingle" horiz-adv-x="269" unicode="&apos;" d="M60 401l23 299h139v-5l-98 -294h-64z"/>
<glyph glyph-name="parenleft" horiz-adv-x="441" unicode="(" d="M340 -141q-277 152 -277 428t277 428l53 -81q-108 -71 -158.5 -154t-50.5 -193t50.5 -192.5t158.5 -154.5z"/>
<glyph glyph-name="parenright" horiz-adv-x="441" unicode=")" d="M101 -141l-53 81q108 72 158.5 154.5t50.5 192.5t-50.5 193t-158.5 154l53 81q277 -152 277 -428t-277 -428z"/>
<glyph glyph-name="asterisk" horiz-adv-x="430" unicode="*" d="M180 382l14 122l-100 -73l-36 61l114 50l-114 50l36 61l100 -73l-14 122h70l-14 -122l100 73l36 -61l-114 -50l114 -50l-36 -61l-100 73l14 -122h-70z"/>
<glyph glyph-name="plus" horiz-adv-x="634" unicode="+" d="M260 106v191h-192v111h192v190h114v-190h192v-111h-192v-191h-114z"/>
<glyph glyph-name="comma" horiz-adv-x="269" unicode="," d="M47 -146l-13 52q86 17 86 85v9h-52v138h133v-117q0 -81 -38 -120.5t-116 -46.5z"/>
<glyph glyph-name="hyphen" horiz-adv-x="408" unicode="-" d="M56 247v119h296v-119h-296z"/>
<glyph glyph-name="period" horiz-adv-x="269" unicode="." d="M68 0v138h133v-138h-133z"/>
<glyph glyph-name="slash" horiz-adv-x="521" unicode="/" d="M-25 -128l452 926h105l-452 -926h-105z"/>
<glyph glyph-name="zero" horiz-adv-x="724" unicode="0" d="M363 99q80 0 128.5 71.5t48.5 177.5v2q0 106 -50 178.5t-129 72.5t-128 -71t-49 -178v-2q0 -106 49.5 -178.5t129.5 -72.5zM361 -12q-135 0 -219.5 103.5t-84.5 256.5v2q0 153 85.5 257.5t220.5 104.5t219.5 -103.5t84.5 -256.5v-2q0 -153 -85.5 -257.5t-220.5 -104.5z "/>
<glyph glyph-name="one" horiz-adv-x="396" unicode="1" d="M178 0v580l-126 -35l-26 100l189 60h85v-705h-122z"/>
<glyph glyph-name="two" horiz-adv-x="613" unicode="2" d="M49 0v97l241 205q74 63 102.5 103t28.5 86q0 50 -32 79.5t-81 29.5q-46 0 -82.5 -25t-78.5 -80l-88 69q54 75 111.5 110.5t146.5 35.5q103 0 167 -57.5t64 -151.5v-2q0 -78 -40 -133t-142 -138l-144 -120h333v-108h-506z"/>
<glyph glyph-name="three" horiz-adv-x="618" unicode="3" d="M311 -12q-167 0 -268 123l86 80q78 -92 184 -92q52 0 86.5 29.5t34.5 76.5v2q0 51 -43.5 79.5t-117.5 28.5h-57l-20 77l189 201h-303v107h463v-92l-195 -200q89 -11 147.5 -58.5t58.5 -137.5v-2q0 -97 -68 -159.5t-177 -62.5z"/>
<glyph glyph-name="four" horiz-adv-x="682" unicode="4" d="M182 258h230v277zM412 0v157h-353l-23 88l389 460h105v-447h100v-101h-100v-157h-118z"/>
<glyph glyph-name="five" horiz-adv-x="623" unicode="5" d="M304 -12q-147 0 -257 107l76 89q90 -84 180 -84q63 0 101 33t38 88v2q0 53 -40.5 84.5t-104.5 31.5q-63 0 -129 -31l-74 49l20 343h419v-109h-313l-11 -164q55 20 111 20q107 0 175.5 -56.5t68.5 -163.5v-2q0 -107 -71.5 -172t-188.5 -65z"/>
<glyph glyph-name="six" horiz-adv-x="656" unicode="6" d="M334 95q64 0 102 35.5t38 90.5v2q0 53 -39.5 87.5t-103.5 34.5t-103 -35.5t-39 -87.5v-2q0 -54 40.5 -89.5t104.5 -35.5zM337 -12q-121 0 -195 74q-42 42 -63.5 104t-21.5 163v2q0 167 78.5 274t221.5 107q117 0 214 -78l-66 -95q-41 31 -74.5 46t-77.5 15 q-57 0 -96.5 -37t-55 -85t-16.5 -101q68 71 168 71q105 0 174.5 -59t69.5 -161v-2q0 -103 -74.5 -170.5t-185.5 -67.5z"/>
<glyph glyph-name="seven" horiz-adv-x="609" unicode="7" d="M106 0l314 592h-352v108h492v-93l-315 -607h-139z"/>
<glyph glyph-name="eight" horiz-adv-x="630" unicode="8" d="M315 93q67 0 107 30t40 75v2q0 47 -42 76.5t-105 29.5t-104.5 -29.5t-41.5 -76.5v-2q0 -44 39.5 -74.5t106.5 -30.5zM315 404q54 0 89.5 29t35.5 74v2q0 41 -35 69.5t-90 28.5t-90 -28t-35 -69v-2q0 -46 35.5 -75t89.5 -29zM315 -10q-116 0 -191.5 55.5t-75.5 145.5v2 q0 117 126 170q-102 54 -102 156v2q0 81 69 135t174 54t174 -54t69 -135v-2q0 -102 -102 -156q126 -57 126 -168v-2q0 -92 -75 -147.5t-192 -55.5z"/>
<glyph glyph-name="nine" horiz-adv-x="656" unicode="9" d="M325 349q65 0 103.5 36.5t38.5 89.5v2q0 56 -40 92.5t-106 36.5q-64 0 -101.5 -37t-37.5 -93v-2q0 -55 39 -90t104 -35zM302 100q58 0 98 37t55.5 84.5t16.5 99.5q-62 -75 -165 -75q-112 0 -180 60.5t-68 161.5v2q0 104 73 173t188 69q119 0 195 -74q84 -86 84 -267v-2 q0 -171 -80 -276t-220 -105q-123 0 -224 84l67 94q79 -66 160 -66z"/>
<glyph glyph-name="colon" horiz-adv-x="279" unicode=":" d="M73 0v138h133v-138h-133zM73 391v137h133v-137h-133z"/>
<glyph glyph-name="semicolon" horiz-adv-x="279" unicode=";" d="M52 -146l-13 52q86 17 86 85v9h-52v138h133v-117q0 -81 -38 -120.5t-116 -46.5zM73 391v137h133v-137h-133z"/>
<glyph glyph-name="less" horiz-adv-x="634" unicode="&lt;" d="M545 77l-478 221v108l478 221v-115l-358 -159l358 -160v-116z"/>
<glyph glyph-name="equal" horiz-adv-x="634" unicode="=" d="M76 171v112h482v-112h-482zM76 421v112h482v-112h-482z"/>
<glyph glyph-name="greater" horiz-adv-x="634" unicode="&gt;" d="M90 77v115l357 159l-357 160v116l478 -221v-108z"/>
<glyph glyph-name="question" horiz-adv-x="541" unicode="?" d="M178 0v138h134v-138h-134zM207 222l-20 162l5 5q185 6 185 111v2q0 43 -31 69t-84 26q-89 0 -163 -79l-75 80q98 111 241 111q106 0 170.5 -55t64.5 -148v-2q0 -167 -202 -202l-10 -80h-81z"/>
<glyph glyph-name="at" horiz-adv-x="980" unicode="@" d="M457 154q52 0 89 39q49 49 49 119q0 48 -30 78t-75 30q-51 0 -91 -40q-47 -47 -47 -118q0 -51 29 -79.5t76 -28.5zM499 -162q-190 0 -318 127.5t-128 308.5q0 180 127.5 309t310.5 129q90 0 171.5 -33t139 -87.5t91.5 -126.5t34 -149q0 -120 -55.5 -184.5t-138.5 -64.5 q-104 0 -148 70q-68 -70 -155 -70q-77 0 -129 52.5t-52 136.5q0 104 69 177t158 73q93 0 141 -74l12 60l97 -15l-44 -252q-5 -30 -5 -43q0 -33 21 -52t57 -19q56 0 94 53.5t38 151.5q0 142 -115 250t-281 108q-169 0 -283.5 -117t-114.5 -283q0 -168 115 -283t291 -115 q131 0 247 67l18 -30q-123 -75 -265 -75z"/>
<glyph glyph-name="A" horiz-adv-x="790" unicode="A" d="M273 278h241l-121 280zM30 0l308 705h114l308 -705h-130l-71 169h-331l-72 -169h-126z"/>
<glyph glyph-name="B" horiz-adv-x="722" unicode="B" d="M550 207q0 94 -144 94h-195v-192h204q64 0 99.5 24.5t35.5 71.5v2zM511 500v2q0 42 -32 65.5t-91 23.5h-177v-186h168q61 0 96.5 24t35.5 71zM90 0v700h314q121 0 183 -62q47 -47 47 -116v-2q0 -104 -100 -156q139 -47 139 -170v-2q0 -92 -70 -142t-189 -50h-324z"/>
<glyph glyph-name="C" horiz-adv-x="738" unicode="C" d="M415 -12q-152 0 -254 104t-102 256v2q0 152 102 257t259 105q91 0 154.5 -28t119.5 -81l-79 -91q-94 87 -196 87q-99 0 -165 -71.5t-66 -175.5v-2q0 -104 66 -176t165 -72q61 0 106.5 22t94.5 68l79 -80q-59 -62 -125 -93t-159 -31z"/>
<glyph glyph-name="D" horiz-adv-x="782" unicode="D" d="M351 588h-138v-476h138q109 0 176 66t67 170v2q0 104 -67 171t-176 67zM90 0v700h261q163 0 267.5 -99.5t104.5 -248.5v-2q0 -150 -104.5 -250t-267.5 -100h-261z"/>
<glyph glyph-name="E" horiz-adv-x="670" unicode="E" d="M90 0v700h519v-110h-396v-182h351v-110h-351v-188h401v-110h-524z"/>
<glyph glyph-name="F" horiz-adv-x="656" unicode="F" d="M90 0v700h521v-112h-398v-191h353v-112h-353v-285h-123z"/>
<glyph glyph-name="G" horiz-adv-x="784" unicode="G" d="M422 -12q-162 0 -262.5 102.5t-100.5 257.5v2q0 150 102.5 256t258.5 106q88 0 150 -23.5t119 -71.5l-78 -93q-44 38 -88.5 56.5t-107.5 18.5q-96 0 -161.5 -72.5t-65.5 -174.5v-2q0 -109 66 -179.5t172 -70.5q98 0 169 53v131h-179v107h298v-294q-127 -109 -292 -109z "/>
<glyph glyph-name="H" horiz-adv-x="760" unicode="H" d="M90 0v700h123v-291h334v291h123v-700h-123v295h-334v-295h-123z"/>
<glyph glyph-name="I" horiz-adv-x="317" unicode="I" d="M97 0v700h123v-700h-123z"/>
<glyph glyph-name="J" horiz-adv-x="560" unicode="J" d="M245 -10q-141 0 -224 113l81 84q64 -83 141 -83q51 0 81 35t30 103v458h127v-462q0 -120 -66 -186q-62 -62 -170 -62z"/>
<glyph glyph-name="K" horiz-adv-x="726" unicode="K" d="M90 0v700h123v-352l333 352h152l-292 -301l305 -399h-150l-239 315l-109 -112v-203h-123z"/>
<glyph glyph-name="L" horiz-adv-x="619" unicode="L" d="M90 0v700h123v-588h368v-112h-491z"/>
<glyph glyph-name="M" horiz-adv-x="868" unicode="M" d="M90 0v700h131l213 -331l213 331h131v-700h-123v502l-221 -330h-4l-219 328v-500h-121z"/>
<glyph glyph-name="N" horiz-adv-x="790" unicode="N" d="M90 0v700h114l375 -484v484h121v-700h-103l-386 498v-498h-121z"/>
<glyph glyph-name="O" horiz-adv-x="850" unicode="O" d="M426 102q103 0 169.5 71t66.5 175v2q0 104 -67.5 176.5t-170.5 72.5t-169.5 -71.5t-66.5 -175.5v-2q0 -104 67.5 -176t170.5 -72zM424 -12q-159 0 -262 105t-103 255v2q0 150 104 256t263 106t262 -105t103 -255v-2q0 -150 -104 -256t-263 -106z"/>
<glyph glyph-name="P" horiz-adv-x="668" unicode="P" d="M213 336h143q69 0 110 35t41 90v2q0 60 -40.5 92.5t-110.5 32.5h-143v-252zM90 0v700h276q122 0 194 -64t72 -170v-2q0 -113 -79.5 -176t-200.5 -63h-139v-225h-123z"/>
<glyph glyph-name="Q" horiz-adv-x="850" unicode="Q" d="M426 102q67 0 121 32l-121 103l79 90l123 -112q34 59 34 133v2q0 104 -67.5 176.5t-170.5 72.5t-169.5 -71.5t-66.5 -175.5v-2q0 -104 67.5 -176t170.5 -72zM800 67l-79 -88l-84 75q-95 -66 -213 -66q-159 0 -262 105t-103 255v2q0 150 104 256t263 106t262 -105 t103 -255v-2q0 -119 -71 -215z"/>
<glyph glyph-name="R" horiz-adv-x="723" unicode="R" d="M213 353h180q66 0 105 32t39 85v2q0 56 -38 86t-107 30h-179v-235zM90 0v700h312q130 0 202 -70q58 -60 58 -151v-2q0 -83 -45 -136.5t-121 -75.5l189 -265h-146l-172 244h-154v-244h-123z"/>
<glyph glyph-name="S" horiz-adv-x="640" unicode="S" d="M335 -10q-167 0 -292 112l74 88q105 -91 221 -91q57 0 90.5 24.5t33.5 63.5v2q0 39 -32 62t-126 45q-60 15 -100 30t-72 39t-46.5 58.5t-14.5 81.5v2q0 90 67 146.5t172 56.5q144 0 254 -88l-66 -93q-97 72 -190 72q-52 0 -83 -23.5t-31 -59.5v-2q0 -41 33.5 -63.5 t133.5 -46.5q116 -28 170 -74.5t54 -130.5v-2q0 -97 -69 -153t-181 -56z"/>
<glyph glyph-name="T" horiz-adv-x="648" unicode="T" d="M262 0v586h-222v114h568v-114h-222v-586h-124z"/>
<glyph glyph-name="U" horiz-adv-x="757" unicode="U" d="M377 -11q-139 0 -218.5 79t-79.5 229v403h123v-398q0 -96 46.5 -147.5t130.5 -51.5q83 0 129.5 49.5t46.5 144.5v403h123v-397q0 -153 -80 -233.5t-221 -80.5z"/>
<glyph glyph-name="V" horiz-adv-x="750" unicode="V" d="M321 -5l-291 705h136l211 -538l210 538h133l-290 -705h-109z"/>
<glyph glyph-name="W" horiz-adv-x="1116" unicode="W" d="M280 -5l-244 705h133l167 -519l172 521h104l172 -521l167 519h129l-243 -705h-107l-172 503l-172 -503h-106z"/>
<glyph glyph-name="X" horiz-adv-x="729" unicode="X" d="M541 700h141l-244 -342l254 -358h-145l-185 267l-184 -267h-141l253 356l-243 344h145l174 -254z"/>
<glyph glyph-name="Y" horiz-adv-x="716" unicode="Y" d="M296 0v276l-278 424h146l195 -309l198 309h141l-278 -421v-279h-124z"/>
<glyph glyph-name="Z" horiz-adv-x="702" unicode="Z" d="M65 0v91l413 500h-400v109h561v-91l-414 -500h414v-109h-574z"/>
<glyph glyph-name="bracketleft" horiz-adv-x="455" unicode="[" d="M88 -130v830h308v-95h-192v-640h192v-95h-308z"/>
<glyph glyph-name="backslash" horiz-adv-x="521" unicode="\" d="M441 -128l-452 926h105l452 -926h-105z"/>
<glyph glyph-name="bracketright" horiz-adv-x="455" unicode="]" d="M59 -130v95h192v640h-192v95h308v-830h-308z"/>
<glyph glyph-name="asciicircum" horiz-adv-x="500" unicode="^" d="M56 493l151 208h86l151 -208h-93l-102 132l-102 -132h-91z"/>
<glyph glyph-name="underscore" horiz-adv-x="600" unicode="_" d="M-2 -160v94h604v-94h-604z"/>
<glyph glyph-name="grave" horiz-adv-x="500" unicode="`" d="M247 595l-123 115l110 49l104 -164h-91z"/>
<glyph glyph-name="a" horiz-adv-x="587" unicode="a" d="M262 77q61 0 101 31.5t40 81.5v36q-54 21 -120 21q-58 0 -91 -23.5t-33 -64.5v-2q0 -37 29 -58.5t74 -21.5zM228 -11q-78 0 -132.5 43.5t-54.5 119.5v2q0 83 59 126.5t159 43.5q73 0 142 -22v13q0 56 -33.5 85.5t-97.5 29.5q-72 0 -151 -33l-32 95q96 43 199 43 q118 0 175 -59q57 -56 57 -163v-313h-118v66q-64 -77 -172 -77z"/>
<glyph glyph-name="b" horiz-adv-x="671" unicode="b" d="M348 94q64 0 107.5 46.5t43.5 122.5v2q0 75 -44 122t-107 47t-108.5 -47.5t-45.5 -121.5v-2q0 -74 45.5 -121.5t108.5 -47.5zM377 -11q-110 0 -180 93v-82h-121v730h121v-290q70 99 180 99q99 0 172 -74t73 -200v-2q0 -125 -72.5 -199.5t-172.5 -74.5z"/>
<glyph glyph-name="c" horiz-adv-x="571" unicode="c" d="M320 -12q-117 0 -195 79.5t-78 193.5v2q0 114 78.5 195t196.5 81q127 0 211 -91l-76 -81q-63 66 -136 66q-65 0 -109 -49t-44 -119v-2q0 -71 44.5 -120t113.5 -49q74 0 137 65l73 -72q-43 -48 -93.5 -73.5t-122.5 -25.5z"/>
<glyph glyph-name="d" horiz-adv-x="671" unicode="d" d="M323 94q63 0 108 47.5t45 121.5v2q0 74 -45 121.5t-108 47.5q-64 0 -108 -46t-44 -123v-2q0 -75 44.5 -122t107.5 -47zM294 -11q-99 0 -172 74.5t-73 199.5v2q0 126 72.5 200t172.5 74q109 0 180 -93v284h121v-730h-121v88q-70 -99 -180 -99z"/>
<glyph glyph-name="e" horiz-adv-x="604" unicode="e" d="M167 301h271q-6 61 -41 100t-93 39q-55 0 -92 -38.5t-45 -100.5zM318 -12q-116 0 -193.5 76.5t-77.5 197.5v2q0 115 73 195t185 80q120 0 186.5 -81.5t66.5 -202.5q0 -10 -2 -34h-388q10 -63 51 -98.5t101 -35.5q78 0 143 63l71 -63q-82 -99 -216 -99z"/>
<glyph glyph-name="f" horiz-adv-x="376" unicode="f" d="M103 0v424h-67v101h67v39q0 87 43 130q42 42 119 42q51 0 98 -14v-102q-39 13 -71 13q-70 0 -70 -80v-29h140v-100h-138v-424h-121z"/>
<glyph glyph-name="g" horiz-adv-x="671" unicode="g" d="M321 145q64 0 109.5 41t45.5 104v2q0 63 -45.5 104t-109.5 41t-107 -40.5t-43 -104.5v-2q0 -64 43.5 -104.5t106.5 -40.5zM311 -162q-132 0 -236 63l45 91q91 -56 188 -56q81 0 124 41.5t43 120.5v41q-75 -97 -186 -97q-98 0 -169 67.5t-71 179.5v2q0 112 71.5 180 t168.5 68q110 0 185 -90v79h121v-420q0 -132 -67 -199q-71 -71 -217 -71z"/>
<glyph glyph-name="h" horiz-adv-x="620" unicode="h" d="M76 0v730h121v-283q64 92 165 92q88 0 138 -54.5t50 -147.5v-337h-121v300q0 62 -29.5 95.5t-83.5 33.5q-53 0 -86 -35t-33 -96v-298h-121z"/>
<glyph glyph-name="i" horiz-adv-x="286" unicode="i" d="M83 0v528h121v-528h-121zM78 609v115h130v-115h-130z"/>
<glyph glyph-name="j" horiz-adv-x="286" unicode="j" d="M51 -163q-27 0 -59 5v97q18 -3 34 -3q57 0 57 64v528h121v-535q0 -156 -153 -156zM78 609v115h130v-115h-130z"/>
<glyph glyph-name="k" horiz-adv-x="582" unicode="k" d="M76 0v730h121v-436l219 234h147l-210 -215l217 -313h-142l-156 229l-75 -78v-151h-121z"/>
<glyph glyph-name="l" horiz-adv-x="286" unicode="l" d="M83 0v730h121v-730h-121z"/>
<glyph glyph-name="m" horiz-adv-x="950" unicode="m" d="M76 0v528h121v-80q66 91 161 91q112 0 158 -93q70 93 178 93q87 0 136 -53t49 -149v-337h-121v300q0 63 -28 96t-79 33t-82 -34.5t-31 -96.5v-298h-121v301q0 61 -28 94.5t-79 33.5t-82 -35.5t-31 -95.5v-298h-121z"/>
<glyph glyph-name="n" horiz-adv-x="620" unicode="n" d="M76 0v528h121v-81q64 92 165 92q88 0 138 -54.5t50 -147.5v-337h-121v300q0 62 -29.5 95.5t-83.5 33.5q-53 0 -86 -35t-33 -96v-298h-121z"/>
<glyph glyph-name="o" horiz-adv-x="657" unicode="o" d="M329 94q72 0 116 48.5t44 118.5v2q0 71 -46 120.5t-116 49.5q-71 0 -115 -48.5t-44 -119.5v-2q0 -70 46 -119.5t115 -49.5zM327 -12q-120 0 -200 79.5t-80 193.5v2q0 115 81 195.5t201 80.5t200.5 -80t80.5 -194v-2q0 -114 -81 -194.5t-202 -80.5z"/>
<glyph glyph-name="p" horiz-adv-x="671" unicode="p" d="M348 94q64 0 107.5 46.5t43.5 122.5v2q0 75 -44 122t-107 47t-108.5 -47.5t-45.5 -121.5v-2q0 -74 45.5 -121.5t108.5 -47.5zM76 -160v688h121v-88q70 99 180 99q99 0 172 -74t73 -200v-2q0 -125 -72.5 -199.5t-172.5 -74.5q-110 0 -180 93v-242h-121z"/>
<glyph glyph-name="q" horiz-adv-x="671" unicode="q" d="M323 94q63 0 108 47.5t45 121.5v2q0 74 -45 121.5t-108 47.5q-64 0 -108 -46t-44 -123v-2q0 -75 44.5 -122t107.5 -47zM474 -160v248q-70 -99 -180 -99q-99 0 -172 74.5t-73 199.5v2q0 126 72.5 200t172.5 74q109 0 180 -93v82h121v-688h-121z"/>
<glyph glyph-name="r" horiz-adv-x="413" unicode="r" d="M76 0v528h121v-119q54 129 177 129h10v-128h-7q-82 0 -131 -53.5t-49 -155.5v-201h-121z"/>
<glyph glyph-name="s" horiz-adv-x="501" unicode="s" d="M257 -10q-124 0 -224 79l54 82q88 -65 173 -65q39 0 60.5 15.5t21.5 41.5v2q0 38 -106 70q-8 3 -12 4q-36 10 -60 20t-51 27.5t-40.5 44.5t-13.5 63v2q0 73 53.5 117t134.5 44q103 0 194 -60l-48 -86q-82 50 -149 50q-34 0 -54 -14.5t-20 -37.5v-2q0 -25 27 -39.5 t82 -32.5q7 -2 10 -3q35 -11 59 -21.5t50.5 -28.5t40.5 -44t14 -60v-2q0 -80 -55 -123t-141 -43z"/>
<glyph glyph-name="t" horiz-adv-x="411" unicode="t" d="M253 -9q-152 0 -152 155v278h-67v104h67v145h121v-145h142v-104h-142v-259q0 -66 65 -66q39 0 75 18v-99q-48 -27 -109 -27z"/>
<glyph glyph-name="u" horiz-adv-x="620" unicode="u" d="M258 -11q-88 0 -138 55t-50 148v336h121v-300q0 -61 29.5 -94.5t83.5 -33.5q53 0 86 34.5t33 95.5v298h122v-528h-122v82q-63 -93 -165 -93z"/>
<glyph glyph-name="v" horiz-adv-x="595" unicode="v" d="M243 -4l-217 532h130l142 -388l143 388h127l-216 -532h-109z"/>
<glyph glyph-name="w" horiz-adv-x="861" unicode="w" d="M203 -4l-171 532h124l106 -362l117 364h104l117 -364l108 362h122l-173 -532h-109l-118 361l-119 -361h-108z"/>
<glyph glyph-name="x" horiz-adv-x="580" unicode="x" d="M169 528l122 -177l122 177h129l-186 -258l194 -270h-132l-130 188l-129 -188h-129l193 269l-186 259h132z"/>
<glyph glyph-name="y" horiz-adv-x="596" unicode="y" d="M305 136l137 392h126l-210 -543q-32 -81 -71 -114.5t-103 -33.5q-66 0 -125 32l41 90q37 -20 71 -20q26 0 43 13.5t32 46.5l-220 529h130z"/>
<glyph glyph-name="z" horiz-adv-x="560" unicode="z" d="M52 0v83l305 346h-294v99h448v-83l-305 -346h305v-99h-459z"/>
<glyph glyph-name="braceleft" horiz-adv-x="487" unicode="{" d="M416 -141q-130 24 -178.5 71t-48.5 129q0 7 1 35t1 37q0 59 -25.5 84.5t-87.5 25.5h-26v92h26q62 0 87.5 26t25.5 85q0 9 -1 37t-1 35q0 82 48.5 128.5t178.5 70.5l21 -80q-86 -24 -111 -51.5t-25 -85.5q0 -10 1 -36.5t1 -37.5q0 -56 -26 -88t-78 -49q53 -17 78.5 -49 t25.5 -88q0 -11 -1 -37.5t-1 -36.5q0 -58 25 -85.5t111 -51.5z"/>
<glyph glyph-name="bar" horiz-adv-x="331" unicode="|" d="M117 -128v926h97v-926h-97z"/>
<glyph glyph-name="braceright" horiz-adv-x="487" unicode="}" d="M71 -141l-21 80q86 24 111 51.5t25 85.5q0 10 -1 36.5t-1 37.5q0 56 26 88t78 49q-53 17 -78.5 49t-25.5 88q0 11 1 37.5t1 36.5q0 58 -25 85.5t-111 51.5l21 80q130 -24 178.5 -70.5t48.5 -128.5q0 -7 -1 -35t-1 -37q0 -59 25.5 -85t87.5 -26h26v-92h-26 q-62 0 -87.5 -25.5t-25.5 -84.5q0 -9 1 -37t1 -35q0 -82 -48.5 -129t-178.5 -71z"/>
<glyph glyph-name="asciitilde" horiz-adv-x="495" unicode="~" d="M324 239q-33 0 -83 22q-46 18 -60 18q-21 0 -32.5 -11.5t-22.5 -38.5l-67 21q17 64 42.5 94t69.5 30q31 0 83 -21q41 -18 60 -18q21 0 32.5 11t22.5 38l67 -20q-17 -64 -42.5 -94.5t-69.5 -30.5z"/>
<glyph glyph-name="uni00A0" horiz-adv-x="300" unicode=" "/>
<glyph glyph-name="exclamdown" horiz-adv-x="302" unicode="¡" d="M80 0v35l38 444h67l37 -444v-35h-142zM85 563v137h133v-137h-133z"/>
<glyph glyph-name="cent" horiz-adv-x="581" unicode="¢" d="M170 355q0 -52 22.5 -92.5t61.5 -60.5l64 323q-63 -2 -105.5 -50.5t-42.5 -117.5v-2zM437 706l-18 -89q67 -21 118 -78l-73 -78q-34 34 -70 49l-63 -325q72 1 137 66l70 -70q-89 -101 -217 -101h-7l-16 -86h-88l20 102q-79 28 -128.5 98.5t-49.5 158.5v2q0 115 78.5 195 t195.5 80h8l15 76h88z"/>
<glyph glyph-name="sterling" horiz-adv-x="644" unicode="£" d="M63 0v78l79 24v176h-79v104h79v92q0 112 62 174q60 62 168 62q137 0 221 -112l-94 -75q-29 37 -57.5 55t-67.5 18q-44 0 -74 -28q-33 -35 -33 -97v-89h249v-104h-249v-171h325v-107h-529z"/>
<glyph glyph-name="yen" horiz-adv-x="686" unicode="¥" d="M91 264v89h158l-230 347h143l182 -293l184 293h139l-232 -347h160v-89h-193v-73h193v-89h-193v-102h-118v102h-193v89h193v73h-193z"/>
<glyph glyph-name="section" horiz-adv-x="632" unicode="§" d="M388 278q34 0 55.5 15.5t21.5 38.5v2q0 22 -27 38t-90 32q-71 18 -104 18q-34 0 -55.5 -15.5t-21.5 -38.5v-2q0 -22 27 -38t91 -32q69 -18 103 -18zM467 233q56 -34 56 -95v-2q0 -67 -53 -106.5t-144 -39.5q-141 0 -231 95l69 68q76 -71 161 -71q40 0 60.5 13.5 t20.5 35.5v2q0 22 -28 37.5t-104 32.5q-117 26 -166.5 59t-49.5 87v2q0 88 107 116q-55 35 -55 95v2q0 67 52.5 106.5t143.5 39.5q142 0 231 -95l-69 -68q-76 71 -161 71q-39 0 -60 -13.5t-21 -35.5v-2q0 -21 27 -36.5t105 -33.5q118 -27 167 -59.5t49 -86.5v-2 q0 -88 -107 -116z"/>
<glyph glyph-name="dieresis" horiz-adv-x="500" unicode="¨" d="M91 595v119h123v-119h-123zM286 595v119h123v-119h-123z"/>
<glyph glyph-name="copyright" horiz-adv-x="830" unicode="©" d="M419 159q-82 0 -137 56t-55 138v2q0 82 55 139t139 57q88 0 149 -59l-47 -54q-50 45 -102 45q-50 0 -84 -37t-34 -90v-2q0 -52 34 -89.5t84 -37.5q54 0 104 47l48 -47q-65 -68 -154 -68zM414 24q138 0 231.5 95.5t93.5 230.5v2q0 135 -93 229.5t-230 94.5 q-138 0 -231.5 -95.5t-93.5 -230.5v-2q0 -135 93 -229.5t230 -94.5zM414 -12q-151 0 -256 105.5t-105 254.5v2q0 149 106 255.5t257 106.5t256 -105.5t105 -254.5v-2q0 -149 -106 -255.5t-257 -106.5z"/>
<glyph glyph-name="ordfeminine" horiz-adv-x="390" unicode="ª" d="M177 454q32 0 53.5 17t21.5 43v18q-31 11 -63 11q-30 0 -47 -12t-17 -33v-2q0 -19 14.5 -30.5t37.5 -11.5zM53 282v58h270v-58h-270zM159 403q-44 0 -73.5 24t-29.5 66v2q0 45 33 69t87 24q36 0 76 -11v5q0 61 -70 61q-35 0 -83 -19l-19 54q53 25 111 25q65 0 97 -33 q31 -30 31 -89v-172h-68v34q-35 -40 -92 -40z"/>
<glyph glyph-name="guillemotleft" horiz-adv-x="606" unicode="«" d="M217 42l-173 218v8l173 218l85 -43l-125 -178l125 -178zM468 42l-172 218v8l172 218l86 -43l-126 -178l126 -178z"/>
<glyph glyph-name="registered" horiz-adv-x="382" unicode="®" d="M163 541h38q31 0 31 25t-31 25h-38v-50zM119 448v181h85q33 0 53 -15t20 -45q0 -43 -40 -56l46 -65h-53l-39 57h-28v-57h-44zM191 379q65 0 109.5 46t44.5 110v1q0 64 -44.5 109.5t-109.5 45.5t-109.5 -46t-44.5 -110v-1q0 -64 44.5 -109.5t109.5 -45.5zM191 360 q-73 0 -123.5 51t-50.5 123v1q0 72 51 123.5t123 51.5q73 0 123.5 -51t50.5 -123v-1q0 -72 -51 -123.5t-123 -51.5z"/>
<glyph glyph-name="macron" horiz-adv-x="500" unicode="¯" d="M80 606v88h340v-88h-340z"/>
<glyph glyph-name="degree" horiz-adv-x="471" unicode="°" d="M236 447q40 0 67 28.5t27 67.5v2q0 39 -27 67t-67 28q-41 0 -68 -28t-27 -67v-2q0 -39 27.5 -67.5t67.5 -28.5zM236 381q-66 0 -116.5 48.5t-50.5 113.5v2q0 65 50.5 113t116.5 48t116 -48t50 -113v-2q0 -65 -50 -113.5t-116 -48.5z"/>
<glyph glyph-name="plusminus" horiz-adv-x="634" unicode="±" d="M560 0h-485v103h485v-103zM560 373h-189l1 -184h-110l1 184h-188v107l188 -1l-1 185h110l-1 -185l189 1v-107z"/>
<glyph glyph-name="two.sup" d="M55 421v62l138 116q39 33 54.5 54t15.5 45t-17.5 39.5t-43.5 15.5q-50 0 -93 -59l-52 41q30 42 64.5 63.5t84.5 21.5q59 0 96 -32.5t37 -83.5q0 -39 -19 -69t-66 -68l-100 -82h188v-64h-287z" unicode="²"/>
<glyph glyph-name="three.sup" d="M197 411q-88 0 -152 64l44 53q49 -51 109 -51q28 0 48 16t20 42q0 27 -23 42t-61 15h-42l-12 46l113 106h-172v66h264v-57l-116 -106q54 -5 88 -32.5t34 -77.5q0 -56 -39 -91t-103 -35z" unicode="³"/>
<glyph glyph-name="acute" horiz-adv-x="500" unicode="´" d="M162 595l104 164l110 -49l-123 -115h-91z"/>
<glyph glyph-name="paragraph" horiz-adv-x="557" unicode="¶" d="M346 0v244h-18q-128 0 -208 59.5t-80 167.5v2q0 105 74.5 166t196.5 61h159v-700h-124z"/>
<glyph glyph-name="periodcentered" horiz-adv-x="269" unicode="·" d="M68 238v137h133v-137h-133z"/>
<glyph glyph-name="cedilla" horiz-adv-x="500" unicode="¸" d="M237 -166l-106 45l94 138h90z"/>
<glyph glyph-name="one.sup" horiz-adv-x="325" unicode="¹" d="M222 421h-72v318l-79 -30l-20 61l117 45h54v-394z"/>
<glyph glyph-name="ordmasculine" horiz-adv-x="390" unicode="º" d="M196 464q36 0 58 25.5t22 62.5v2q0 37 -23.5 63t-58.5 26t-57.5 -25.5t-22.5 -62.5v-2q0 -37 23.5 -63t58.5 -26zM51 282v58h288v-58h-288zM194 402q-64 0 -107 43.5t-43 106.5v2q0 63 43.5 107t108.5 44t107.5 -43.5t42.5 -106.5v-2q0 -63 -43.5 -107t-108.5 -44z"/>
<glyph glyph-name="guillemotright" horiz-adv-x="606" unicode="»" d="M138 42l-85 44l125 177l-125 178l85 45l172 -218v-8zM389 42l-85 44l125 177l-125 178l85 45l173 -218v-8z"/>
<glyph glyph-name="onequarter" horiz-adv-x="825" unicode="¼" d="M667 141v172l-133 -172h133zM221 311h-72v318l-79 -30l-20 61l117 46h54v-395zM127 0l251 364l224 336h71l-251 -364l-224 -336h-71zM733 83v-85h-67v85h-188l-10 67l190 243h75v-252h53v-58h-53z"/>
<glyph glyph-name="onehalf" horiz-adv-x="825" unicode="½" d="M221 311h-72v318l-79 -30l-20 61l117 46h54v-395zM117 0l251 364l224 336h71l-251 -364l-224 -336h-71zM490 0v62l138 116q39 33 54.5 54t15.5 45t-17.5 39.5t-43.5 15.5q-50 0 -93 -59l-52 41q30 42 64.5 63.5t84.5 21.5q59 0 96 -32.5t37 -83.5q0 -39 -19 -69t-66 -68 l-100 -82h188v-64h-287z"/>
<glyph glyph-name="threequarters" horiz-adv-x="900" unicode="¾" d="M742 141v172l-133 -172h133zM197 0l251 364l224 336h71l-251 -364l-224 -336h-71zM197 301q-88 0 -152 64l44 53q49 -51 109 -51q28 0 48 16t20 42q0 28 -23 43t-61 15h-42l-12 45l113 106h-172v66h264v-57l-116 -106q54 -4 88 -32t34 -78q0 -56 -39 -91t-103 -35z M808 83v-85h-67v85h-188l-10 67l190 243h75v-252h53v-58h-53z"/>
<glyph glyph-name="questiondown" horiz-adv-x="541" unicode="¿" d="M276 -9q-106 0 -170 55t-64 148v2q0 168 201 202l10 81h81l20 -162l-5 -5q-184 -7 -184 -112v-2q0 -43 30.5 -69t83.5 -26q89 0 163 79l75 -80q-98 -111 -241 -111zM229 563v137h134v-137h-134z"/>
<glyph glyph-name="Agrave" horiz-adv-x="790" unicode="À" d="M444 768h-95l-127 97l109 48zM273 278h241l-121 280zM30 0l308 705h114l308 -705h-130l-71 169h-331l-72 -169h-126z"/>
<glyph glyph-name="Aacute" horiz-adv-x="790" unicode="Á" d="M345 768l112 145l110 -48l-128 -97h-94zM273 278h241l-121 280zM30 0l308 705h114l308 -705h-130l-71 169h-331l-72 -169h-126z"/>
<glyph glyph-name="Acircumflex" horiz-adv-x="790" unicode="Â" d="M217 764l121 135h114l121 -135h-102l-77 58l-77 -58h-100zM273 278h241l-121 280zM30 0l308 705h114l308 -705h-130l-71 169h-331l-72 -169h-126z"/>
<glyph glyph-name="Atilde" horiz-adv-x="790" unicode="Ã" d="M478 768q-33 0 -89 22q-42 17 -58 17q-21 0 -32.5 -11t-23.5 -38l-67 21q17 62 42.5 92.5t69.5 30.5q30 0 89 -23q44 -16 58 -16q21 0 32.5 11t22.5 37l68 -20q-18 -62 -43.5 -92.5t-68.5 -30.5zM273 278h241l-121 280zM30 0l308 705h114l308 -705h-130l-71 169h-331 l-72 -169h-126z"/>
<glyph glyph-name="Adieresis" horiz-adv-x="790" unicode="Ä" d="M230 768v112h125v-112h-125zM436 768v112h124v-112h-124zM273 278h241l-121 280zM30 0l308 705h114l308 -705h-130l-71 169h-331l-72 -169h-126z"/>
<glyph glyph-name="Aring" horiz-adv-x="790" unicode="Å" d="M395 687q28 0 46.5 17t18.5 41q0 25 -18.5 41.5t-46.5 16.5t-46 -16.5t-18 -41.5q0 -24 18 -41t46 -17zM273 278h241l-121 280zM30 0l289 663q-43 31 -43 82q0 46 35 76t84 30t84 -30t35 -76q0 -50 -43 -81l289 -664h-130l-71 169h-331l-72 -169h-126z"/>
<glyph glyph-name="AE" horiz-adv-x="1045" unicode="Æ" d="M291 278h196v315h-20zM12 0l391 700h581v-110h-374v-182h329v-110h-329v-188h379v-110h-502v169h-254l-94 -169h-127z"/>
<glyph glyph-name="Ccedilla" horiz-adv-x="738" unicode="Ç" d="M371 -166l-106 45l78 116q-125 23 -204.5 121.5t-79.5 231.5v2q0 152 102 257t259 105q91 0 154.5 -28t119.5 -81l-79 -91q-94 87 -196 87q-99 0 -165 -71.5t-66 -175.5v-2q0 -104 66 -176t165 -72q61 0 106.5 22t94.5 68l79 -80q-56 -58 -117 -88.5t-145 -34.5z"/>
<glyph glyph-name="Egrave" horiz-adv-x="670" unicode="È" d="M90 0v700h519v-110h-396v-182h351v-110h-351v-188h401v-110h-524zM401 758h-95l-127 97l109 48z"/>
<glyph glyph-name="Eacute" horiz-adv-x="670" unicode="É" d="M90 0v700h519v-110h-396v-182h351v-110h-351v-188h401v-110h-524zM302 758l112 145l110 -48l-128 -97h-94z"/>
<glyph glyph-name="Ecircumflex" horiz-adv-x="670" unicode="Ê" d="M173 758l121 135h114l121 -135h-102l-77 58l-77 -58h-100zM90 0v700h519v-110h-396v-182h351v-110h-351v-188h401v-110h-524z"/>
<glyph glyph-name="Edieresis" horiz-adv-x="670" unicode="Ë" d="M90 0v700h519v-110h-396v-182h351v-110h-351v-188h401v-110h-524zM186 758v112h125v-112h-125zM392 758v112h124v-112h-124z"/>
<glyph glyph-name="Igrave" horiz-adv-x="317" unicode="Ì" d="M209 758h-95l-127 97l109 48zM97 0v700h123v-700h-123z"/>
<glyph glyph-name="Iacute" horiz-adv-x="317" unicode="Í" d="M110 758l112 145l110 -48l-128 -97h-94zM97 0v700h123v-700h-123z"/>
<glyph glyph-name="Icircumflex" horiz-adv-x="317" unicode="Î" d="M-19 758l121 135h114l121 -135h-102l-77 58l-77 -58h-100zM97 0v700h123v-700h-123z"/>
<glyph glyph-name="Idieresis" horiz-adv-x="317" unicode="Ï" d="M-6 758v112h125v-112h-125zM200 758v112h124v-112h-124zM97 0v700h123v-700h-123z"/>
<glyph glyph-name="Eth" horiz-adv-x="812" unicode="Ð" d="M418 297h-175v-185h138q109 0 176 66t67 170v2q0 104 -67 171t-176 67h-138v-181h175v-110zM120 0v297h-75v110h75v293h261q163 0 267.5 -99.5t104.5 -248.5v-2q0 -150 -104.5 -250t-267.5 -100h-261z"/>
<glyph glyph-name="Ntilde" horiz-adv-x="790" unicode="Ñ" d="M90 0v700h114l375 -484v484h121v-700h-103l-386 498v-498h-121zM478 757q-33 0 -89 22q-42 17 -58 17q-21 0 -32.5 -11t-23.5 -38l-67 21q17 62 42.5 92.5t69.5 30.5q30 0 89 -23q44 -16 58 -16q21 0 32.5 11t22.5 37l68 -20q-18 -62 -43.5 -92.5t-68.5 -30.5z"/>
<glyph glyph-name="Ograve" horiz-adv-x="850" unicode="Ò" d="M426 102q103 0 169.5 71t66.5 175v2q0 104 -67.5 176.5t-170.5 72.5t-169.5 -71.5t-66.5 -175.5v-2q0 -104 67.5 -176t170.5 -72zM424 -12q-159 0 -262 105t-103 255v2q0 150 104 256t263 106t262 -105t103 -255v-2q0 -150 -104 -256t-263 -106zM474 768h-95l-127 97 l109 48z"/>
<glyph glyph-name="Oacute" horiz-adv-x="850" unicode="Ó" d="M426 102q103 0 169.5 71t66.5 175v2q0 104 -67.5 176.5t-170.5 72.5t-169.5 -71.5t-66.5 -175.5v-2q0 -104 67.5 -176t170.5 -72zM424 -12q-159 0 -262 105t-103 255v2q0 150 104 256t263 106t262 -105t103 -255v-2q0 -150 -104 -256t-263 -106zM375 768l112 145l110 -48 l-128 -97h-94z"/>
<glyph glyph-name="Ocircumflex" horiz-adv-x="850" unicode="Ô" d="M247 768l121 135h114l121 -135h-102l-77 58l-77 -58h-100zM426 102q103 0 169.5 71t66.5 175v2q0 104 -67.5 176.5t-170.5 72.5t-169.5 -71.5t-66.5 -175.5v-2q0 -104 67.5 -176t170.5 -72zM424 -12q-159 0 -262 105t-103 255v2q0 150 104 256t263 106t262 -105t103 -255 v-2q0 -150 -104 -256t-263 -106z"/>
<glyph glyph-name="Otilde" horiz-adv-x="850" unicode="Õ" d="M426 102q103 0 169.5 71t66.5 175v2q0 104 -67.5 176.5t-170.5 72.5t-169.5 -71.5t-66.5 -175.5v-2q0 -104 67.5 -176t170.5 -72zM424 -12q-159 0 -262 105t-103 255v2q0 150 104 256t263 106t262 -105t103 -255v-2q0 -150 -104 -256t-263 -106zM508 768q-33 0 -89 22 q-42 17 -58 17q-21 0 -32.5 -11t-23.5 -38l-67 21q17 62 42.5 92.5t69.5 30.5q30 0 89 -23q44 -16 58 -16q21 0 32.5 11t22.5 37l68 -20q-18 -62 -43.5 -92.5t-68.5 -30.5z"/>
<glyph glyph-name="Odieresis" horiz-adv-x="850" unicode="Ö" d="M426 102q103 0 169.5 71t66.5 175v2q0 104 -67.5 176.5t-170.5 72.5t-169.5 -71.5t-66.5 -175.5v-2q0 -104 67.5 -176t170.5 -72zM424 -12q-159 0 -262 105t-103 255v2q0 150 104 256t263 106t262 -105t103 -255v-2q0 -150 -104 -256t-263 -106zM260 768v112h125v-112 h-125zM466 768v112h124v-112h-124z"/>
<glyph glyph-name="multiply" horiz-adv-x="634" unicode="×" d="M479 113l-163 166l-163 -166l-75 75l166 163l-166 163l77 77l163 -166l163 166l75 -75l-166 -163l166 -163z"/>
<glyph glyph-name="Oslash" horiz-adv-x="850" unicode="Ø" d="M186 351q0 -85 46 -152l322 364q-59 38 -130 38q-103 0 -170.5 -72.5t-67.5 -176.5v-1zM426 99q104 0 171.5 72.5t67.5 176.5v1q0 85 -47 152l-322 -364q57 -38 130 -38zM678 705h121l-99 -112q91 -100 91 -241v-2q0 -150 -104 -256t-263 -106q-116 0 -205 58l-47 -51 h-121l98 112q-90 101 -90 241v2q0 150 104 256t263 106q113 0 204 -59z"/>
<glyph glyph-name="Ugrave" horiz-adv-x="757" unicode="Ù" d="M377 -11q-139 0 -218.5 79t-79.5 229v403h123v-398q0 -96 46.5 -147.5t130.5 -51.5q83 0 129.5 49.5t46.5 144.5v403h123v-397q0 -153 -80 -233.5t-221 -80.5zM428 757h-95l-127 97l109 48z"/>
<glyph glyph-name="Uacute" horiz-adv-x="757" unicode="Ú" d="M377 -11q-139 0 -218.5 79t-79.5 229v403h123v-398q0 -96 46.5 -147.5t130.5 -51.5q83 0 129.5 49.5t46.5 144.5v403h123v-397q0 -153 -80 -233.5t-221 -80.5zM329 757l112 145l110 -48l-128 -97h-94z"/>
<glyph glyph-name="Ucircumflex" horiz-adv-x="757" unicode="Û" d="M200 757l121 135h114l121 -135h-102l-77 58l-77 -58h-100zM377 -11q-139 0 -218.5 79t-79.5 229v403h123v-398q0 -96 46.5 -147.5t130.5 -51.5q83 0 129.5 49.5t46.5 144.5v403h123v-397q0 -153 -80 -233.5t-221 -80.5z"/>
<glyph glyph-name="Udieresis" horiz-adv-x="757" unicode="Ü" d="M377 -11q-139 0 -218.5 79t-79.5 229v403h123v-398q0 -96 46.5 -147.5t130.5 -51.5q83 0 129.5 49.5t46.5 144.5v403h123v-397q0 -153 -80 -233.5t-221 -80.5zM213 757v112h125v-112h-125zM419 757v112h124v-112h-124z"/>
<glyph glyph-name="Yacute" horiz-adv-x="716" unicode="Ý" d="M308 757l112 145l110 -48l-128 -97h-94zM296 0v276l-278 424h146l195 -309l198 309h141l-278 -421v-279h-124z"/>
<glyph glyph-name="Thorn" horiz-adv-x="673" unicode="Þ" d="M213 226h143q69 0 110 35t41 91v2q0 60 -40.5 92.5t-110.5 32.5h-143v-253zM90 0v700h123v-109h153q122 0 194 -64t72 -170v-2q0 -114 -79.5 -176.5t-200.5 -62.5h-139v-116h-123z"/>
<glyph glyph-name="germandbls" horiz-adv-x="620" unicode="ß" d="M296 -2v93q74 2 114 30t40 78v2q0 47 -41.5 76t-112.5 38v82q113 55 113 139v2q0 43 -27.5 69.5t-73.5 26.5q-50 0 -81 -35t-31 -93v-506h-120v502q0 109 64 172t174 63q99 0 157.5 -53.5t58.5 -134.5v-2q0 -110 -111 -171q152 -51 152 -178v-2q0 -93 -69.5 -145.5 t-189.5 -52.5h-16z"/>
<glyph glyph-name="agrave" horiz-adv-x="587" unicode="à" d="M251 595l-123 115l110 49l104 -164h-91zM262 77q61 0 101 31.5t40 81.5v36q-54 21 -120 21q-58 0 -91 -23.5t-33 -64.5v-2q0 -37 29 -58.5t74 -21.5zM228 -11q-78 0 -132.5 43.5t-54.5 119.5v2q0 83 59 126.5t159 43.5q73 0 142 -22v13q0 56 -33.5 85.5t-97.5 29.5 q-72 0 -151 -33l-32 95q96 43 199 43q118 0 175 -59q57 -56 57 -163v-313h-118v66q-64 -77 -172 -77z"/>
<glyph glyph-name="aacute" horiz-adv-x="587" unicode="á" d="M246 595l104 164l110 -49l-123 -115h-91zM262 77q61 0 101 31.5t40 81.5v36q-54 21 -120 21q-58 0 -91 -23.5t-33 -64.5v-2q0 -37 29 -58.5t74 -21.5zM228 -11q-78 0 -132.5 43.5t-54.5 119.5v2q0 83 59 126.5t159 43.5q73 0 142 -22v13q0 56 -33.5 85.5t-97.5 29.5 q-72 0 -151 -33l-32 95q96 43 199 43q118 0 175 -59q57 -56 57 -163v-313h-118v66q-64 -77 -172 -77z"/>
<glyph glyph-name="acircumflex" horiz-adv-x="587" unicode="â" d="M122 595l116 147h112l117 -147h-96l-78 67l-77 -67h-94zM262 77q61 0 101 31.5t40 81.5v36q-54 21 -120 21q-58 0 -91 -23.5t-33 -64.5v-2q0 -37 29 -58.5t74 -21.5zM228 -11q-78 0 -132.5 43.5t-54.5 119.5v2q0 83 59 126.5t159 43.5q73 0 142 -22v13q0 56 -33.5 85.5 t-97.5 29.5q-72 0 -151 -33l-32 95q96 43 199 43q118 0 175 -59q57 -56 57 -163v-313h-118v66q-64 -77 -172 -77z"/>
<glyph glyph-name="atilde" horiz-adv-x="587" unicode="ã" d="M376 595q-32 0 -84 21q-42 19 -60 19q-20 0 -31.5 -11t-23.5 -39l-67 21q17 64 42.5 94t69.5 30q32 0 84 -21q42 -19 60 -19q20 0 31.5 11t23.5 39l67 -20q-17 -64 -42.5 -94.5t-69.5 -30.5zM262 77q61 0 101 31.5t40 81.5v36q-54 21 -120 21q-58 0 -91 -23.5t-33 -64.5 v-2q0 -37 29 -58.5t74 -21.5zM228 -11q-78 0 -132.5 43.5t-54.5 119.5v2q0 83 59 126.5t159 43.5q73 0 142 -22v13q0 56 -33.5 85.5t-97.5 29.5q-72 0 -151 -33l-32 95q96 43 199 43q118 0 175 -59q57 -56 57 -163v-313h-118v66q-64 -77 -172 -77z"/>
<glyph glyph-name="adieresis" horiz-adv-x="587" unicode="ä" d="M135 595v119h123v-119h-123zM330 595v119h123v-119h-123zM262 77q61 0 101 31.5t40 81.5v36q-54 21 -120 21q-58 0 -91 -23.5t-33 -64.5v-2q0 -37 29 -58.5t74 -21.5zM228 -11q-78 0 -132.5 43.5t-54.5 119.5v2q0 83 59 126.5t159 43.5q73 0 142 -22v13q0 56 -33.5 85.5 t-97.5 29.5q-72 0 -151 -33l-32 95q96 43 199 43q118 0 175 -59q57 -56 57 -163v-313h-118v66q-64 -77 -172 -77z"/>
<glyph glyph-name="aring" horiz-adv-x="587" unicode="å" d="M294 638q28 0 47.5 19.5t19.5 47.5t-19.5 47.5t-47.5 19.5t-47.5 -19.5t-19.5 -47.5t19.5 -47.5t47.5 -19.5zM294 593q-48 0 -82 33t-34 79t34 79t82 33t82 -33t34 -79t-34 -79t-82 -33zM262 77q61 0 101 31.5t40 81.5v36q-54 21 -120 21q-58 0 -91 -23.5t-33 -64.5v-2 q0 -37 29 -58.5t74 -21.5zM228 -11q-78 0 -132.5 43.5t-54.5 119.5v2q0 83 59 126.5t159 43.5q73 0 142 -22v13q0 56 -33.5 85.5t-97.5 29.5q-72 0 -151 -33l-32 95q96 43 199 43q118 0 175 -59q57 -56 57 -163v-313h-118v66q-64 -77 -172 -77z"/>
<glyph glyph-name="ae" horiz-adv-x="952" unicode="æ" d="M260 78q84 0 157 68q-16 40 -20 81q-56 20 -116 20q-58 0 -90 -23.5t-32 -64.5v-2q0 -36 29 -57.5t72 -21.5zM514 301h272q-6 61 -41 100t-93 39q-55 0 -92.5 -38.5t-45.5 -100.5zM240 -11q-86 0 -142.5 43.5t-56.5 119.5v2q0 83 58.5 126.5t157.5 43.5q71 0 140 -22v13 q0 56 -33 85.5t-96 29.5q-70 0 -149 -33l-32 95q96 43 197 43q137 0 186 -86q69 90 185 90q118 0 184 -81.5t66 -202.5q0 -22 -1 -34h-388q10 -63 51 -98.5t100 -35.5q79 0 144 63l71 -63q-84 -99 -217 -99q-127 0 -204 90q-107 -89 -221 -89z"/>
<glyph glyph-name="ccedilla" horiz-adv-x="571" unicode="ç" d="M276 -166l-106 45l80 118q-91 22 -147 95.5t-56 168.5v2q0 114 78.5 195t196.5 81q127 0 211 -91l-76 -81q-63 66 -136 66q-65 0 -109 -49t-44 -119v-2q0 -71 44.5 -120t113.5 -49q74 0 137 65l73 -72q-82 -92 -194 -98z"/>
<glyph glyph-name="egrave" horiz-adv-x="604" unicode="è" d="M260 595l-123 115l110 49l104 -164h-91zM167 301h271q-6 61 -41 100t-93 39q-55 0 -92 -38.5t-45 -100.5zM318 -12q-116 0 -193.5 76.5t-77.5 197.5v2q0 115 73 195t185 80q120 0 186.5 -81.5t66.5 -202.5q0 -10 -2 -34h-388q10 -63 51 -98.5t101 -35.5q78 0 143 63 l71 -63q-82 -99 -216 -99z"/>
<glyph glyph-name="eacute" horiz-adv-x="604" unicode="é" d="M167 301h271q-6 61 -41 100t-93 39q-55 0 -92 -38.5t-45 -100.5zM318 -12q-116 0 -193.5 76.5t-77.5 197.5v2q0 115 73 195t185 80q120 0 186.5 -81.5t66.5 -202.5q0 -10 -2 -34h-388q10 -63 51 -98.5t101 -35.5q78 0 143 63l71 -63q-82 -99 -216 -99zM255 595l104 164 l110 -49l-123 -115h-91z"/>
<glyph glyph-name="ecircumflex" horiz-adv-x="604" unicode="ê" d="M167 301h271q-6 61 -41 100t-93 39q-55 0 -92 -38.5t-45 -100.5zM318 -12q-116 0 -193.5 76.5t-77.5 197.5v2q0 115 73 195t185 80q120 0 186.5 -81.5t66.5 -202.5q0 -10 -2 -34h-388q10 -63 51 -98.5t101 -35.5q78 0 143 63l71 -63q-82 -99 -216 -99zM131 595l116 147 h112l117 -147h-96l-78 67l-77 -67h-94z"/>
<glyph glyph-name="edieresis" horiz-adv-x="604" unicode="ë" d="M167 301h271q-6 61 -41 100t-93 39q-55 0 -92 -38.5t-45 -100.5zM318 -12q-116 0 -193.5 76.5t-77.5 197.5v2q0 115 73 195t185 80q120 0 186.5 -81.5t66.5 -202.5q0 -10 -2 -34h-388q10 -63 51 -98.5t101 -35.5q78 0 143 63l71 -63q-82 -99 -216 -99zM144 595v119h123 v-119h-123zM339 595v119h123v-119h-123z"/>
<glyph glyph-name="igrave" horiz-adv-x="286" unicode="ì" d="M100 595l-123 115l110 49l104 -164h-91zM83 0v528h121v-528h-121z"/>
<glyph glyph-name="iacute" horiz-adv-x="286" unicode="í" d="M83 0v528h121v-528h-121zM95 595l104 164l110 -49l-123 -115h-91z"/>
<glyph glyph-name="icircumflex" horiz-adv-x="286" unicode="î" d="M83 0v528h121v-528h-121zM-29 595l116 147h112l117 -147h-96l-78 67l-77 -67h-94z"/>
<glyph glyph-name="idieresis" horiz-adv-x="286" unicode="ï" d="M83 0v528h121v-528h-121zM-16 595v119h123v-119h-123zM179 595v119h123v-119h-123z"/>
<glyph glyph-name="eth" horiz-adv-x="657" unicode="ð" d="M329 94q71 0 115.5 47.5t44.5 118.5v2q0 70 -46 118t-118 48q-71 0 -114 -47t-43 -118v-2q0 -69 46 -118t115 -49zM519 666l-78 -25q168 -170 168 -352v-2q0 -128 -77.5 -213.5t-205.5 -85.5q-119 0 -199 80.5t-80 199.5v2q0 109 70.5 183t169.5 74q75 0 146 -50 q-37 63 -106 129l-121 -37l-24 67l84 26q-50 42 -88 68h164l39 -33l114 35z"/>
<glyph glyph-name="ntilde" horiz-adv-x="620" unicode="ñ" d="M393 595q-31 0 -84 21q-42 19 -60 19q-21 0 -32 -11t-23 -39l-67 21q17 64 42.5 94t69.5 30q31 0 84 -21q42 -19 60 -19q21 0 32 11t23 39l67 -20q-17 -64 -42.5 -94.5t-69.5 -30.5zM76 0v528h121v-81q64 92 165 92q88 0 138 -54.5t50 -147.5v-337h-121v300 q0 62 -29.5 95.5t-83.5 33.5q-53 0 -86 -35t-33 -96v-298h-121z"/>
<glyph glyph-name="ograve" horiz-adv-x="657" unicode="ò" d="M285 595l-123 115l110 49l104 -164h-91zM329 94q72 0 116 48.5t44 118.5v2q0 71 -46 120.5t-116 49.5q-71 0 -115 -48.5t-44 -119.5v-2q0 -70 46 -119.5t115 -49.5zM327 -12q-120 0 -200 79.5t-80 193.5v2q0 115 81 195.5t201 80.5t200.5 -80t80.5 -194v-2 q0 -114 -81 -194.5t-202 -80.5z"/>
<glyph glyph-name="oacute" horiz-adv-x="657" unicode="ó" d="M329 94q72 0 116 48.5t44 118.5v2q0 71 -46 120.5t-116 49.5q-71 0 -115 -48.5t-44 -119.5v-2q0 -70 46 -119.5t115 -49.5zM327 -12q-120 0 -200 79.5t-80 193.5v2q0 115 81 195.5t201 80.5t200.5 -80t80.5 -194v-2q0 -114 -81 -194.5t-202 -80.5zM280 595l104 164 l110 -49l-123 -115h-91z"/>
<glyph glyph-name="ocircumflex" horiz-adv-x="657" unicode="ô" d="M329 94q72 0 116 48.5t44 118.5v2q0 71 -46 120.5t-116 49.5q-71 0 -115 -48.5t-44 -119.5v-2q0 -70 46 -119.5t115 -49.5zM327 -12q-120 0 -200 79.5t-80 193.5v2q0 115 81 195.5t201 80.5t200.5 -80t80.5 -194v-2q0 -114 -81 -194.5t-202 -80.5zM156 595l116 147h112 l117 -147h-96l-78 67l-77 -67h-94z"/>
<glyph glyph-name="otilde" horiz-adv-x="657" unicode="õ" d="M409 595q-31 0 -84 21q-42 19 -60 19q-21 0 -32 -11t-23 -39l-67 21q17 64 42.5 94t69.5 30q31 0 84 -21q42 -19 60 -19q21 0 32 11t23 39l67 -20q-17 -64 -42.5 -94.5t-69.5 -30.5zM329 94q72 0 116 48.5t44 118.5v2q0 71 -46 120.5t-116 49.5q-71 0 -115 -48.5 t-44 -119.5v-2q0 -70 46 -119.5t115 -49.5zM327 -12q-120 0 -200 79.5t-80 193.5v2q0 115 81 195.5t201 80.5t200.5 -80t80.5 -194v-2q0 -114 -81 -194.5t-202 -80.5z"/>
<glyph glyph-name="odieresis" horiz-adv-x="657" unicode="ö" d="M329 94q72 0 116 48.5t44 118.5v2q0 71 -46 120.5t-116 49.5q-71 0 -115 -48.5t-44 -119.5v-2q0 -70 46 -119.5t115 -49.5zM327 -12q-120 0 -200 79.5t-80 193.5v2q0 115 81 195.5t201 80.5t200.5 -80t80.5 -194v-2q0 -114 -81 -194.5t-202 -80.5zM169 595v119h123v-119 h-123zM364 595v119h123v-119h-123z"/>
<glyph glyph-name="divide" horiz-adv-x="634" unicode="÷" d="M250 80v128h134v-128h-134zM566 300h-498v104h498v-104zM250 497v127h134v-127h-134z"/>
<glyph glyph-name="oslash" horiz-adv-x="657" unicode="ø" d="M165 264q0 -52 26 -95l219 244q-37 23 -83 23q-72 0 -117 -49.5t-45 -121.5v-1zM329 90q73 0 118 49.5t45 121.5v2q0 50 -26 94l-219 -245q36 -22 82 -22zM515 534h110l-81 -91q66 -75 66 -178v-2q0 -114 -81 -194.5t-202 -80.5q-85 0 -152 42l-33 -35h-110l80 89 q-65 75 -65 177v2q0 115 81 195.5t201 80.5q83 0 152 -42z"/>
<glyph glyph-name="ugrave" horiz-adv-x="620" unicode="ù" d="M263 595l-123 115l110 49l104 -164h-91zM258 -11q-88 0 -138 55t-50 148v336h121v-300q0 -61 29.5 -94.5t83.5 -33.5q53 0 86 34.5t33 95.5v298h122v-528h-122v82q-63 -93 -165 -93z"/>
<glyph glyph-name="uacute" horiz-adv-x="620" unicode="ú" d="M258 -11q-88 0 -138 55t-50 148v336h121v-300q0 -61 29.5 -94.5t83.5 -33.5q53 0 86 34.5t33 95.5v298h122v-528h-122v82q-63 -93 -165 -93zM258 595l104 164l110 -49l-123 -115h-91z"/>
<glyph glyph-name="ucircumflex" horiz-adv-x="620" unicode="û" d="M258 -11q-88 0 -138 55t-50 148v336h121v-300q0 -61 29.5 -94.5t83.5 -33.5q53 0 86 34.5t33 95.5v298h122v-528h-122v82q-63 -93 -165 -93zM134 595l116 147h112l117 -147h-96l-78 67l-77 -67h-94z"/>
<glyph glyph-name="udieresis" horiz-adv-x="620" unicode="ü" d="M258 -11q-88 0 -138 55t-50 148v336h121v-300q0 -61 29.5 -94.5t83.5 -33.5q53 0 86 34.5t33 95.5v298h122v-528h-122v82q-63 -93 -165 -93zM147 595v119h123v-119h-123zM342 595v119h123v-119h-123z"/>
<glyph glyph-name="yacute" horiz-adv-x="596" unicode="ý" d="M250 595l104 164l110 -49l-123 -115h-91zM305 136l137 392h126l-210 -543q-32 -81 -71 -114.5t-103 -33.5q-66 0 -125 32l41 90q37 -20 71 -20q26 0 43 13.5t32 46.5l-220 529h130z"/>
<glyph glyph-name="thorn" horiz-adv-x="671" unicode="þ" d="M348 94q64 0 107.5 46.5t43.5 122.5v2q0 75 -44 122t-107 47t-108.5 -47.5t-45.5 -121.5v-2q0 -74 45.5 -121.5t108.5 -47.5zM76 -160v890h121v-290q70 99 180 99q99 0 172 -74t73 -200v-2q0 -125 -72.5 -199.5t-172.5 -74.5q-110 0 -180 93v-242h-121z"/>
<glyph glyph-name="ydieresis" horiz-adv-x="596" unicode="ÿ" d="M139 595v119h123v-119h-123zM334 595v119h123v-119h-123zM305 136l137 392h126l-210 -543q-32 -81 -71 -114.5t-103 -33.5q-66 0 -125 32l41 90q37 -20 71 -20q26 0 43 13.5t32 46.5l-220 529h130z"/>
<glyph glyph-name="Amacron" horiz-adv-x="790" unicode="Ā" d="M216 779v90h359v-90h-359zM273 278h241l-121 280zM30 0l308 705h114l308 -705h-130l-71 169h-331l-72 -169h-126z"/>
<glyph glyph-name="amacron" horiz-adv-x="587" unicode="ā" d="M124 606v88h340v-88h-340zM262 77q61 0 101 31.5t40 81.5v36q-54 21 -120 21q-58 0 -91 -23.5t-33 -64.5v-2q0 -37 29 -58.5t74 -21.5zM228 -11q-78 0 -132.5 43.5t-54.5 119.5v2q0 83 59 126.5t159 43.5q73 0 142 -22v13q0 56 -33.5 85.5t-97.5 29.5q-72 0 -151 -33 l-32 95q96 43 199 43q118 0 175 -59q57 -56 57 -163v-313h-118v66q-64 -77 -172 -77z"/>
<glyph glyph-name="Abreve" horiz-adv-x="790" unicode="Ă" d="M395 766q-73 0 -120 35.5t-53 98.5h86q19 -50 87 -50t87 50h86q-6 -63 -53 -98.5t-120 -35.5zM273 278h241l-121 280zM30 0l308 705h114l308 -705h-130l-71 169h-331l-72 -169h-126z"/>
<glyph glyph-name="abreve" horiz-adv-x="587" unicode="ă" d="M294 593q-73 0 -119.5 38.5t-51.5 106.5h83q20 -61 88 -61t88 61h84q-6 -68 -52.5 -106.5t-119.5 -38.5zM262 77q61 0 101 31.5t40 81.5v36q-54 21 -120 21q-58 0 -91 -23.5t-33 -64.5v-2q0 -37 29 -58.5t74 -21.5zM228 -11q-78 0 -132.5 43.5t-54.5 119.5v2 q0 83 59 126.5t159 43.5q73 0 142 -22v13q0 56 -33.5 85.5t-97.5 29.5q-72 0 -151 -33l-32 95q96 43 199 43q118 0 175 -59q57 -56 57 -163v-313h-118v66q-64 -77 -172 -77z"/>
<glyph glyph-name="Aogonek" horiz-adv-x="790" unicode="Ą" d="M273 278h241l-121 280zM768 -106v-58q-24 -2 -32 -2q-63 1 -97.5 24t-34.5 60q0 40 40 82h-14l-71 169h-331l-72 -169h-126l308 705h114l308 -705h-31q-33 -33 -33 -63q0 -43 72 -43z"/>
<glyph glyph-name="aogonek" horiz-adv-x="587" unicode="ą" d="M262 77q61 0 101 31.5t40 81.5v36q-54 21 -120 21q-58 0 -91 -23.5t-33 -64.5v-2q0 -37 29 -58.5t74 -21.5zM525 -106v-58q-24 -2 -32 -2q-63 1 -97.5 24t-34.5 60q0 40 40 82h-1v66q-64 -77 -172 -77q-78 0 -132.5 43.5t-54.5 119.5v2q0 83 59 126.5t159 43.5 q73 0 142 -22v13q0 56 -33.5 85.5t-97.5 29.5q-72 0 -151 -33l-32 95q96 43 199 43q118 0 175 -59q57 -56 57 -163v-313h-32q-33 -33 -33 -63q0 -43 72 -43z"/>
<glyph glyph-name="Cacute" horiz-adv-x="738" unicode="Ć" d="M359 768l112 145l110 -48l-128 -97h-94zM415 -12q-152 0 -254 104t-102 256v2q0 152 102 257t259 105q91 0 154.5 -28t119.5 -81l-79 -91q-94 87 -196 87q-99 0 -165 -71.5t-66 -175.5v-2q0 -104 66 -176t165 -72q61 0 106.5 22t94.5 68l79 -80q-59 -62 -125 -93 t-159 -31z"/>
<glyph glyph-name="cacute" horiz-adv-x="571" unicode="ć" d="M320 -12q-117 0 -195 79.5t-78 193.5v2q0 114 78.5 195t196.5 81q127 0 211 -91l-76 -81q-63 66 -136 66q-65 0 -109 -49t-44 -119v-2q0 -71 44.5 -120t113.5 -49q74 0 137 65l73 -72q-43 -48 -93.5 -73.5t-122.5 -25.5zM267 595l104 164l110 -49l-123 -115h-91z"/>
<glyph glyph-name="Cdotaccent" horiz-adv-x="738" unicode="Ċ" d="M415 -12q-152 0 -254 104t-102 256v2q0 152 102 257t259 105q91 0 154.5 -28t119.5 -81l-79 -91q-94 87 -196 87q-99 0 -165 -71.5t-66 -175.5v-2q0 -104 66 -176t165 -72q61 0 106.5 22t94.5 68l79 -80q-59 -62 -125 -93t-159 -31zM344 768v112h128v-112h-128z"/>
<glyph glyph-name="cdotaccent" horiz-adv-x="571" unicode="ċ" d="M252 595v119h126v-119h-126zM320 -12q-117 0 -195 79.5t-78 193.5v2q0 114 78.5 195t196.5 81q127 0 211 -91l-76 -81q-63 66 -136 66q-65 0 -109 -49t-44 -119v-2q0 -71 44.5 -120t113.5 -49q74 0 137 65l73 -72q-43 -48 -93.5 -73.5t-122.5 -25.5z"/>
<glyph glyph-name="Ccaron" horiz-adv-x="738" unicode="Č" d="M586 903l-121 -135h-114l-121 135h102l77 -57l77 57h100zM415 -12q-152 0 -254 104t-102 256v2q0 152 102 257t259 105q91 0 154.5 -28t119.5 -81l-79 -91q-94 87 -196 87q-99 0 -165 -71.5t-66 -175.5v-2q0 -104 66 -176t165 -72q61 0 106.5 22t94.5 68l79 -80 q-59 -62 -125 -93t-159 -31z"/>
<glyph glyph-name="ccaron" horiz-adv-x="571" unicode="č" d="M320 -12q-117 0 -195 79.5t-78 193.5v2q0 114 78.5 195t196.5 81q127 0 211 -91l-76 -81q-63 66 -136 66q-65 0 -109 -49t-44 -119v-2q0 -71 44.5 -120t113.5 -49q74 0 137 65l73 -72q-43 -48 -93.5 -73.5t-122.5 -25.5zM488 742l-117 -147h-112l-116 147h96l77 -67 l78 67h94z"/>
<glyph glyph-name="Dcaron" horiz-adv-x="782" unicode="Ď" d="M555 893l-121 -135h-114l-121 135h102l77 -57l77 57h100zM351 588h-138v-476h138q109 0 176 66t67 170v2q0 104 -67 171t-176 67zM90 0v700h261q163 0 267.5 -99.5t104.5 -248.5v-2q0 -150 -104.5 -250t-267.5 -100h-261z"/>
<glyph glyph-name="dcaron" horiz-adv-x="671" unicode="ď" d="M323 94q63 0 108 47.5t45 121.5v2q0 74 -45 121.5t-108 47.5q-64 0 -108 -46t-44 -123v-2q0 -75 44.5 -122t107.5 -47zM294 -11q-99 0 -172 74.5t-73 199.5v2q0 126 72.5 200t172.5 74q109 0 180 -93v284h121v-730h-121v88q-70 -99 -180 -99zM651 589l12 190h94v-3 l-56 -187h-50z"/>
<glyph glyph-name="Dcroat" horiz-adv-x="812" unicode="Đ" d="M418 297h-175v-185h138q109 0 176 66t67 170v2q0 104 -67 171t-176 67h-138v-181h175v-110zM120 0v297h-75v110h75v293h261q163 0 267.5 -99.5t104.5 -248.5v-2q0 -150 -104.5 -250t-267.5 -100h-261z"/>
<glyph glyph-name="dcroat" horiz-adv-x="671" unicode="đ" d="M323 94q63 0 108 47.5t45 121.5v2q0 74 -45 121.5t-108 47.5q-64 0 -108 -46t-44 -123v-2q0 -75 44.5 -122t107.5 -47zM310 601v73h164v56h121v-56h69v-73h-69v-601h-121v88q-70 -99 -180 -99q-99 0 -172 74.5t-73 199.5v2q0 126 72.5 200t172.5 74q109 0 180 -93v155 h-164z"/>
<glyph glyph-name="Emacron" horiz-adv-x="670" unicode="Ē" d="M90 0v700h519v-110h-396v-182h351v-110h-351v-188h401v-110h-524zM172 769v90h359v-90h-359z"/>
<glyph glyph-name="emacron" horiz-adv-x="604" unicode="ē" d="M133 606v88h340v-88h-340zM167 301h271q-6 61 -41 100t-93 39q-55 0 -92 -38.5t-45 -100.5zM318 -12q-116 0 -193.5 76.5t-77.5 197.5v2q0 115 73 195t185 80q120 0 186.5 -81.5t66.5 -202.5q0 -10 -2 -34h-388q10 -63 51 -98.5t101 -35.5q78 0 143 63l71 -63 q-82 -99 -216 -99z"/>
<glyph glyph-name="Ebreve" horiz-adv-x="670" unicode="Ĕ" d="M90 0v700h519v-110h-396v-182h351v-110h-351v-188h401v-110h-524zM351 756q-73 0 -120 35.5t-53 98.5h86q19 -50 87 -50t87 50h86q-6 -63 -53 -98.5t-120 -35.5z"/>
<glyph glyph-name="ebreve" horiz-adv-x="604" unicode="ĕ" d="M303 593q-73 0 -119.5 38.5t-51.5 106.5h83q20 -61 88 -61t88 61h84q-6 -68 -52.5 -106.5t-119.5 -38.5zM167 301h271q-6 61 -41 100t-93 39q-55 0 -92 -38.5t-45 -100.5zM318 -12q-116 0 -193.5 76.5t-77.5 197.5v2q0 115 73 195t185 80q120 0 186.5 -81.5t66.5 -202.5 q0 -10 -2 -34h-388q10 -63 51 -98.5t101 -35.5q78 0 143 63l71 -63q-82 -99 -216 -99z"/>
<glyph glyph-name="Edotaccent" horiz-adv-x="670" unicode="Ė" d="M90 0v700h519v-110h-396v-182h351v-110h-351v-188h401v-110h-524zM287 758v112h128v-112h-128z"/>
<glyph glyph-name="edotaccent" horiz-adv-x="604" unicode="ė" d="M240 595v119h126v-119h-126zM167 301h271q-6 61 -41 100t-93 39q-55 0 -92 -38.5t-45 -100.5zM318 -12q-116 0 -193.5 76.5t-77.5 197.5v2q0 115 73 195t185 80q120 0 186.5 -81.5t66.5 -202.5q0 -10 -2 -34h-388q10 -63 51 -98.5t101 -35.5q78 0 143 63l71 -63 q-82 -99 -216 -99z"/>
<glyph glyph-name="Eogonek" horiz-adv-x="670" unicode="Ę" d="M90 0v700h519v-110h-396v-182h351v-110h-351v-188h401v-110h-39q-33 -33 -33 -63q0 -43 72 -43v-58q-24 -2 -32 -2q-63 1 -97.5 24t-34.5 60q0 40 40 82h-400z"/>
<glyph glyph-name="eogonek" horiz-adv-x="604" unicode="ę" d="M463 150l71 -63q-27 -31 -58 -58q-55 -49 -55 -87q0 -48 72 -48v-58q-22 -2 -32 -2q-63 1 -97 23.5t-34 58.5t34 76q-26 -4 -46 -4q-116 0 -193.5 76.5t-77.5 197.5v2q0 115 73 195t185 80q120 0 186.5 -81.5t66.5 -202.5q0 -10 -2 -34h-388q10 -63 51 -98.5t101 -35.5 q78 0 143 63zM167 301h271q-6 61 -41 100t-93 39q-55 0 -92 -38.5t-45 -100.5z"/>
<glyph glyph-name="Ecaron" horiz-adv-x="670" unicode="Ě" d="M90 0v700h519v-110h-396v-182h351v-110h-351v-188h401v-110h-524zM529 893l-121 -135h-114l-121 135h102l77 -57l77 57h100z"/>
<glyph glyph-name="ecaron" horiz-adv-x="604" unicode="ě" d="M167 301h271q-6 61 -41 100t-93 39q-55 0 -92 -38.5t-45 -100.5zM318 -12q-116 0 -193.5 76.5t-77.5 197.5v2q0 115 73 195t185 80q120 0 186.5 -81.5t66.5 -202.5q0 -10 -2 -34h-388q10 -63 51 -98.5t101 -35.5q78 0 143 63l71 -63q-82 -99 -216 -99zM476 742l-117 -147 h-112l-116 147h96l77 -67l78 67h94z"/>
<glyph glyph-name="Gbreve" horiz-adv-x="784" unicode="Ğ" d="M422 -12q-162 0 -262.5 102.5t-100.5 257.5v2q0 150 102.5 256t258.5 106q88 0 150 -23.5t119 -71.5l-78 -93q-44 38 -88.5 56.5t-107.5 18.5q-96 0 -161.5 -72.5t-65.5 -174.5v-2q0 -109 66 -179.5t172 -70.5q98 0 169 53v131h-179v107h298v-294q-127 -109 -292 -109z M412 766q-73 0 -120 35.5t-53 98.5h86q19 -50 87 -50t87 50h86q-6 -63 -53 -98.5t-120 -35.5z"/>
<glyph glyph-name="gbreve" horiz-adv-x="671" unicode="ğ" d="M341 593q-73 0 -119.5 38.5t-51.5 106.5h83q20 -61 88 -61t88 61h84q-6 -68 -52.5 -106.5t-119.5 -38.5zM321 145q64 0 109.5 41t45.5 104v2q0 63 -45.5 104t-109.5 41t-107 -40.5t-43 -104.5v-2q0 -64 43.5 -104.5t106.5 -40.5zM311 -162q-132 0 -236 63l45 91 q91 -56 188 -56q81 0 124 41.5t43 120.5v41q-75 -97 -186 -97q-98 0 -169 67.5t-71 179.5v2q0 112 71.5 180t168.5 68q110 0 185 -90v79h121v-420q0 -132 -67 -199q-71 -71 -217 -71z"/>
<glyph glyph-name="Gdotaccent" horiz-adv-x="784" unicode="Ġ" d="M422 -12q-162 0 -262.5 102.5t-100.5 257.5v2q0 150 102.5 256t258.5 106q88 0 150 -23.5t119 -71.5l-78 -93q-44 38 -88.5 56.5t-107.5 18.5q-96 0 -161.5 -72.5t-65.5 -174.5v-2q0 -109 66 -179.5t172 -70.5q98 0 169 53v131h-179v107h298v-294q-127 -109 -292 -109z M348 768v112h128v-112h-128z"/>
<glyph glyph-name="gdotaccent" horiz-adv-x="671" unicode="ġ" d="M278 595v119h126v-119h-126zM321 145q64 0 109.5 41t45.5 104v2q0 63 -45.5 104t-109.5 41t-107 -40.5t-43 -104.5v-2q0 -64 43.5 -104.5t106.5 -40.5zM311 -162q-132 0 -236 63l45 91q91 -56 188 -56q81 0 124 41.5t43 120.5v41q-75 -97 -186 -97q-98 0 -169 67.5 t-71 179.5v2q0 112 71.5 180t168.5 68q110 0 185 -90v79h121v-420q0 -132 -67 -199q-71 -71 -217 -71z"/>
<glyph glyph-name="Gcommaaccent" horiz-adv-x="784" unicode="Ģ" d="M422 -12q-162 0 -262.5 102.5t-100.5 257.5v2q0 150 102.5 256t258.5 106q88 0 150 -23.5t119 -71.5l-78 -93q-44 38 -88.5 56.5t-107.5 18.5q-96 0 -161.5 -72.5t-65.5 -174.5v-2q0 -109 66 -179.5t172 -70.5q98 0 169 53v131h-179v107h298v-294q-127 -109 -292 -109z M344 -275l-8 39q70 10 70 61v7h-54v101h118v-86q0 -116 -126 -122z"/>
<glyph glyph-name="gcommaaccent" horiz-adv-x="671" unicode="ģ" d="M321 145q64 0 109.5 41t45.5 104v2q0 63 -45.5 104t-109.5 41t-107 -40.5t-43 -104.5v-2q0 -64 43.5 -104.5t106.5 -40.5zM311 -162q-132 0 -236 63l45 91q91 -56 188 -56q81 0 124 41.5t43 120.5v41q-75 -97 -186 -97q-98 0 -169 67.5t-71 179.5v2q0 112 71.5 180 t168.5 68q110 0 185 -90v79h121v-420q0 -132 -67 -199q-71 -71 -217 -71zM406 803l8 -39q-70 -10 -70 -61v-7h54v-101h-118v86q0 116 126 122z"/>
<glyph glyph-name="Hbar" horiz-adv-x="778" unicode="Ħ" d="M222 407h334v106h-334v-106zM28 511v87h71v102h123v-102h334v102h123v-102h72v-87h-72v-511h-123v294h-334v-294h-123v511h-71z"/>
<glyph glyph-name="hbar" horiz-adv-x="620" unicode="ħ" d="M361 601h-164v-154q64 92 165 92q88 0 138 -54.5t50 -147.5v-337h-121v300q0 62 -29.5 95.5t-83.5 33.5q-53 0 -86 -35t-33 -96v-298h-121v601h-69v73h69v56h121v-56h164v-73z"/>
<glyph glyph-name="Imacron" horiz-adv-x="317" unicode="Ī" d="M-20 769v90h359v-90h-359zM97 0v700h123v-700h-123z"/>
<glyph glyph-name="imacron" horiz-adv-x="286" unicode="ī" d="M-27 606v88h340v-88h-340zM83 0v528h121v-528h-121z"/>
<glyph glyph-name="Ibreve" horiz-adv-x="317" unicode="Ĭ" d="M159 756q-73 0 -120 35.5t-53 98.5h86q19 -50 87 -50t87 50h86q-6 -63 -53 -98.5t-120 -35.5zM97 0v700h123v-700h-123z"/>
<glyph glyph-name="ibreve" horiz-adv-x="286" unicode="ĭ" d="M143 593q-73 0 -119.5 38.5t-51.5 106.5h83q20 -61 88 -61t88 61h84q-6 -68 -52.5 -106.5t-119.5 -38.5zM83 0v528h121v-528h-121z"/>
<glyph glyph-name="Iogonek" horiz-adv-x="317" unicode="Į" d="M97 0v700h123v-700h-22q-33 -33 -33 -63q0 -43 72 -43v-58q-24 -2 -32 -2q-63 1 -97.5 24t-34.5 60q0 40 40 82h-16z"/>
<glyph glyph-name="iogonek" horiz-adv-x="286" unicode="į" d="M78 609v115h130v-115h-130zM83 0v528h121v-528h-21q-33 -33 -33 -63q0 -43 72 -43v-58q-24 -2 -32 -2q-63 1 -97.5 24t-34.5 60q0 40 40 82h-15z"/>
<glyph glyph-name="Idotaccent" horiz-adv-x="317" unicode="İ" d="M95 758v112h128v-112h-128zM97 0v700h123v-700h-123z"/>
<glyph glyph-name="dotlessi" horiz-adv-x="286" unicode="ı" d="M83 0v528h121v-528h-121z"/>
<glyph glyph-name="Kcommaaccent" horiz-adv-x="726" unicode="Ķ" d="M90 0v700h123v-352l333 352h152l-292 -301l305 -399h-150l-239 315l-109 -112v-203h-123zM297 -267l-8 39q70 10 70 61v7h-54v101h118v-86q0 -116 -126 -122z"/>
<glyph glyph-name="kcommaaccent" horiz-adv-x="582" unicode="ķ" d="M76 0v730h121v-436l219 234h147l-210 -215l217 -313h-142l-156 229l-75 -78v-151h-121zM236 -272l-8 39q70 10 70 61v7h-54v101h118v-86q0 -116 -126 -122z"/>
<glyph glyph-name="Lacute" horiz-adv-x="619" unicode="Ĺ" d="M90 0v700h123v-588h368v-112h-491zM119 758l112 145l110 -48l-128 -97h-94z"/>
<glyph glyph-name="lacute" horiz-adv-x="286" unicode="ĺ" d="M83 0v730h121v-730h-121zM97 775l112 145l110 -48l-128 -97h-94z"/>
<glyph glyph-name="Lcommaaccent" horiz-adv-x="619" unicode="Ļ" d="M90 0v700h123v-588h368v-112h-491zM266 -272l-8 39q70 10 70 61v7h-54v101h118v-86q0 -116 -126 -122z"/>
<glyph glyph-name="lcommaaccent" horiz-adv-x="286" unicode="ļ" d="M83 0v730h121v-730h-121zM76 -272l-8 39q70 10 70 61v7h-54v101h118v-86q0 -116 -126 -122z"/>
<glyph glyph-name="Lcaron" horiz-adv-x="619" unicode="Ľ" d="M90 0v700h123v-588h368v-112h-491zM292 510l12 190h94v-3l-56 -187h-50z"/>
<glyph glyph-name="lcaron" horiz-adv-x="286" unicode="ľ" d="M83 0v730h121v-730h-121zM260 589l12 190h94v-3l-56 -187h-50z"/>
<glyph glyph-name="Ldot" horiz-adv-x="619" unicode="Ŀ" d="M90 0v700h123v-588h368v-112h-491zM414 317v119h122v-119h-122z"/>
<glyph glyph-name="ldot" horiz-adv-x="367" unicode="ŀ" d="M83 0v730h121v-730h-121zM274 319v112h106v-112h-106z"/>
<glyph glyph-name="Lslash" horiz-adv-x="649" unicode="Ł" d="M403 386l-161 -73v-201h369v-112h-491v258l-75 -33v117l75 33v325h122v-270l161 73v-117z"/>
<glyph glyph-name="lslash" horiz-adv-x="346" unicode="ł" d="M309 383l-76 -39v-344h-120v283l-76 -39v116l76 39v331h120v-270l76 39v-116z"/>
<glyph glyph-name="Nacute" horiz-adv-x="790" unicode="Ń" d="M90 0v700h114l375 -484v484h121v-700h-103l-386 498v-498h-121zM345 757l112 145l110 -48l-128 -97h-94z"/>
<glyph glyph-name="nacute" horiz-adv-x="620" unicode="ń" d="M76 0v528h121v-81q64 92 165 92q88 0 138 -54.5t50 -147.5v-337h-121v300q0 62 -29.5 95.5t-83.5 33.5q-53 0 -86 -35t-33 -96v-298h-121zM264 595l104 164l110 -49l-123 -115h-91z"/>
<glyph glyph-name="Ncommaaccent" horiz-adv-x="790" unicode="Ņ" d="M90 0v700h114l375 -484v484h121v-700h-103l-386 498v-498h-121zM327 -267l-8 39q70 10 70 61v7h-54v101h118v-86q0 -116 -126 -122z"/>
<glyph glyph-name="ncommaaccent" horiz-adv-x="620" unicode="ņ" d="M76 0v528h121v-81q64 92 165 92q88 0 138 -54.5t50 -147.5v-337h-121v300q0 62 -29.5 95.5t-83.5 33.5q-53 0 -86 -35t-33 -96v-298h-121zM245 -272l-8 39q70 10 70 61v7h-54v101h118v-86q0 -116 -126 -122z"/>
<glyph glyph-name="Ncaron" horiz-adv-x="790" unicode="Ň" d="M90 0v700h114l375 -484v484h121v-700h-103l-386 498v-498h-121zM573 892l-121 -135h-114l-121 135h102l77 -57l77 57h100z"/>
<glyph glyph-name="ncaron" horiz-adv-x="620" unicode="ň" d="M76 0v528h121v-81q64 92 165 92q88 0 138 -54.5t50 -147.5v-337h-121v300q0 62 -29.5 95.5t-83.5 33.5q-53 0 -86 -35t-33 -96v-298h-121zM485 742l-117 -147h-112l-116 147h96l77 -67l78 67h94z"/>
<glyph glyph-name="Omacron" horiz-adv-x="850" unicode="Ō" d="M426 102q103 0 169.5 71t66.5 175v2q0 104 -67.5 176.5t-170.5 72.5t-169.5 -71.5t-66.5 -175.5v-2q0 -104 67.5 -176t170.5 -72zM424 -12q-159 0 -262 105t-103 255v2q0 150 104 256t263 106t262 -105t103 -255v-2q0 -150 -104 -256t-263 -106zM246 779v90h359v-90h-359 z"/>
<glyph glyph-name="omacron" horiz-adv-x="657" unicode="ō" d="M329 94q72 0 116 48.5t44 118.5v2q0 71 -46 120.5t-116 49.5q-71 0 -115 -48.5t-44 -119.5v-2q0 -70 46 -119.5t115 -49.5zM327 -12q-120 0 -200 79.5t-80 193.5v2q0 115 81 195.5t201 80.5t200.5 -80t80.5 -194v-2q0 -114 -81 -194.5t-202 -80.5zM158 606v88h340v-88 h-340z"/>
<glyph glyph-name="Obreve" horiz-adv-x="850" unicode="Ŏ" d="M426 102q103 0 169.5 71t66.5 175v2q0 104 -67.5 176.5t-170.5 72.5t-169.5 -71.5t-66.5 -175.5v-2q0 -104 67.5 -176t170.5 -72zM424 -12q-159 0 -262 105t-103 255v2q0 150 104 256t263 106t262 -105t103 -255v-2q0 -150 -104 -256t-263 -106zM425 766q-73 0 -120 35.5 t-53 98.5h86q19 -50 87 -50t87 50h86q-6 -63 -53 -98.5t-120 -35.5z"/>
<glyph glyph-name="obreve" horiz-adv-x="657" unicode="ŏ" d="M328 593q-73 0 -119.5 38.5t-51.5 106.5h83q20 -61 88 -61t88 61h84q-6 -68 -52.5 -106.5t-119.5 -38.5zM329 94q72 0 116 48.5t44 118.5v2q0 71 -46 120.5t-116 49.5q-71 0 -115 -48.5t-44 -119.5v-2q0 -70 46 -119.5t115 -49.5zM327 -12q-120 0 -200 79.5t-80 193.5v2 q0 115 81 195.5t201 80.5t200.5 -80t80.5 -194v-2q0 -114 -81 -194.5t-202 -80.5z"/>
<glyph glyph-name="Ohungarumlaut" horiz-adv-x="850" unicode="Ő" d="M456 768l112 145l106 -48l-127 -97h-91zM281 768l112 145l106 -48l-127 -97h-91zM426 102q103 0 169.5 71t66.5 175v2q0 104 -67.5 176.5t-170.5 72.5t-169.5 -71.5t-66.5 -175.5v-2q0 -104 67.5 -176t170.5 -72zM424 -12q-159 0 -262 105t-103 255v2q0 150 104 256 t263 106t262 -105t103 -255v-2q0 -150 -104 -256t-263 -106z"/>
<glyph glyph-name="ohungarumlaut" horiz-adv-x="657" unicode="ő" d="M329 94q72 0 116 48.5t44 118.5v2q0 71 -46 120.5t-116 49.5q-71 0 -115 -48.5t-44 -119.5v-2q0 -70 46 -119.5t115 -49.5zM327 -12q-120 0 -200 79.5t-80 193.5v2q0 115 81 195.5t201 80.5t200.5 -80t80.5 -194v-2q0 -114 -81 -194.5t-202 -80.5zM188 595l103 164 l106 -49l-121 -115h-88zM358 595l105 164l106 -49l-123 -115h-88z"/>
<glyph glyph-name="OE" horiz-adv-x="1098" unicode="Œ" d="M431 112h109v476h-109q-109 0 -176 -66t-67 -170v-2q0 -104 67 -171t176 -67zM431 0q-163 0 -267.5 99.5t-104.5 248.5v2q0 150 104.5 250t267.5 100h606v-110h-374v-182h329v-110h-329v-188h379v-110h-611z"/>
<glyph glyph-name="oe" horiz-adv-x="1040" unicode="œ" d="M326 94q70 0 113 48.5t43 118.5v2q0 71 -45 120.5t-113 49.5q-69 0 -112.5 -49t-43.5 -119v-2q0 -70 45 -119.5t113 -49.5zM602 301h272q-7 62 -41.5 100.5t-92.5 38.5q-55 0 -92.5 -38.5t-45.5 -100.5zM321 -12q-114 0 -194 80t-80 193v2q0 114 81 195t198 81 q66 0 121.5 -29t89.5 -80q34 51 87 80t117 29q120 0 186 -81.5t66 -202.5q0 -10 -2 -34h-388q10 -63 51.5 -98.5t100.5 -35.5q79 0 144 63l71 -63q-84 -99 -216 -99q-68 0 -125 29.5t-93 81.5q-35 -51 -91.5 -81t-123.5 -30z"/>
<glyph glyph-name="Racute" horiz-adv-x="723" unicode="Ŕ" d="M303 758l112 145l110 -48l-128 -97h-94zM213 353h180q66 0 105 32t39 85v2q0 56 -38 86t-107 30h-179v-235zM90 0v700h312q130 0 202 -70q58 -60 58 -151v-2q0 -83 -45 -136.5t-121 -75.5l189 -265h-146l-172 244h-154v-244h-123z"/>
<glyph glyph-name="racute" horiz-adv-x="413" unicode="ŕ" d="M76 0v528h121v-119q54 129 177 129h10v-128h-7q-82 0 -131 -53.5t-49 -155.5v-201h-121zM175 595l104 164l110 -49l-123 -115h-91z"/>
<glyph glyph-name="Rcommaaccent" horiz-adv-x="723" unicode="Ŗ" d="M285 -267l-8 39q70 10 70 61v7h-54v101h118v-86q0 -116 -126 -122zM213 353h180q66 0 105 32t39 85v2q0 56 -38 86t-107 30h-179v-235zM90 0v700h312q130 0 202 -70q58 -60 58 -151v-2q0 -83 -45 -136.5t-121 -75.5l189 -265h-146l-172 244h-154v-244h-123z"/>
<glyph glyph-name="rcommaaccent" horiz-adv-x="413" unicode="ŗ" d="M76 0v528h121v-119q54 129 177 129h10v-128h-7q-82 0 -131 -53.5t-49 -155.5v-201h-121zM76 -272l-8 39q70 10 70 61v7h-54v101h118v-86q0 -116 -126 -122z"/>
<glyph glyph-name="Rcaron" horiz-adv-x="723" unicode="Ř" d="M530 893l-121 -135h-114l-121 135h102l77 -57l77 57h100zM213 353h180q66 0 105 32t39 85v2q0 56 -38 86t-107 30h-179v-235zM90 0v700h312q130 0 202 -70q58 -60 58 -151v-2q0 -83 -45 -136.5t-121 -75.5l189 -265h-146l-172 244h-154v-244h-123z"/>
<glyph glyph-name="rcaron" horiz-adv-x="413" unicode="ř" d="M76 0v528h121v-119q54 129 177 129h10v-128h-7q-82 0 -131 -53.5t-49 -155.5v-201h-121zM397 742l-117 -147h-112l-116 147h96l77 -67l78 67h94z"/>
<glyph glyph-name="Sacute" horiz-adv-x="640" unicode="Ś" d="M275 768l112 145l110 -48l-128 -97h-94zM335 -10q-167 0 -292 112l74 88q105 -91 221 -91q57 0 90.5 24.5t33.5 63.5v2q0 39 -32 62t-126 45q-60 15 -100 30t-72 39t-46.5 58.5t-14.5 81.5v2q0 90 67 146.5t172 56.5q144 0 254 -88l-66 -93q-97 72 -190 72 q-52 0 -83 -23.5t-31 -59.5v-2q0 -41 33.5 -63.5t133.5 -46.5q116 -28 170 -74.5t54 -130.5v-2q0 -97 -69 -153t-181 -56z"/>
<glyph glyph-name="sacute" horiz-adv-x="501" unicode="ś" d="M257 -10q-124 0 -224 79l54 82q88 -65 173 -65q39 0 60.5 15.5t21.5 41.5v2q0 38 -106 70q-8 3 -12 4q-36 10 -60 20t-51 27.5t-40.5 44.5t-13.5 63v2q0 73 53.5 117t134.5 44q103 0 194 -60l-48 -86q-82 50 -149 50q-34 0 -54 -14.5t-20 -37.5v-2q0 -25 27 -39.5 t82 -32.5q7 -2 10 -3q35 -11 59 -21.5t50.5 -28.5t40.5 -44t14 -60v-2q0 -80 -55 -123t-141 -43zM205 595l104 164l110 -49l-123 -115h-91z"/>
<glyph glyph-name="Scedilla" horiz-adv-x="640" unicode="Ş" d="M307 -166l-106 45l78 115q-133 15 -236 108l74 88q105 -91 221 -91q57 0 90.5 24.5t33.5 63.5v2q0 39 -32 62t-126 45q-60 15 -100 30t-72 39t-46.5 58.5t-14.5 81.5v2q0 90 67 146.5t172 56.5q144 0 254 -88l-66 -93q-97 72 -190 72q-52 0 -83 -23.5t-31 -59.5v-2 q0 -41 33.5 -63.5t133.5 -46.5q116 -28 170 -74.5t54 -130.5v-2q0 -88 -57.5 -142.5t-153.5 -64.5z"/>
<glyph glyph-name="scedilla" horiz-adv-x="501" unicode="ş" d="M226 -166l-106 45l79 116q-93 16 -166 74l54 82q88 -65 173 -65q39 0 60.5 15.5t21.5 41.5v2q0 38 -106 70q-8 3 -12 4q-36 10 -60 20t-51 27.5t-40.5 44.5t-13.5 63v2q0 73 53.5 117t134.5 44q103 0 194 -60l-48 -86q-82 50 -149 50q-34 0 -54 -14.5t-20 -37.5v-2 q0 -25 27 -39.5t82 -32.5q7 -2 10 -3q35 -11 59 -21.5t50.5 -28.5t40.5 -44t14 -60v-2q0 -71 -44 -113t-116 -51z"/>
<glyph glyph-name="Scaron" horiz-adv-x="640" unicode="Š" d="M503 903l-121 -135h-114l-121 135h102l77 -57l77 57h100zM335 -10q-167 0 -292 112l74 88q105 -91 221 -91q57 0 90.5 24.5t33.5 63.5v2q0 39 -32 62t-126 45q-60 15 -100 30t-72 39t-46.5 58.5t-14.5 81.5v2q0 90 67 146.5t172 56.5q144 0 254 -88l-66 -93 q-97 72 -190 72q-52 0 -83 -23.5t-31 -59.5v-2q0 -41 33.5 -63.5t133.5 -46.5q116 -28 170 -74.5t54 -130.5v-2q0 -97 -69 -153t-181 -56z"/>
<glyph glyph-name="scaron" horiz-adv-x="501" unicode="š" d="M257 -10q-124 0 -224 79l54 82q88 -65 173 -65q39 0 60.5 15.5t21.5 41.5v2q0 38 -106 70q-8 3 -12 4q-36 10 -60 20t-51 27.5t-40.5 44.5t-13.5 63v2q0 73 53.5 117t134.5 44q103 0 194 -60l-48 -86q-82 50 -149 50q-34 0 -54 -14.5t-20 -37.5v-2q0 -25 27 -39.5 t82 -32.5q7 -2 10 -3q35 -11 59 -21.5t50.5 -28.5t40.5 -44t14 -60v-2q0 -80 -55 -123t-141 -43zM426 742l-117 -147h-112l-116 147h96l77 -67l78 67h94z"/>
<glyph glyph-name="Tcommaaccent" horiz-adv-x="648" unicode="Ţ" d="M262 0v586h-222v114h568v-114h-222v-586h-124zM256 -272l-8 39q70 10 70 61v7h-54v101h118v-86q0 -116 -126 -122z"/>
<glyph glyph-name="tcommaaccent" horiz-adv-x="411" unicode="ţ" d="M253 -9q-152 0 -152 155v278h-67v104h67v145h121v-145h142v-104h-142v-259q0 -66 65 -66q39 0 75 18v-99q-48 -27 -109 -27zM156 -272l-8 39q70 10 70 61v7h-54v101h118v-86q0 -116 -126 -122z"/>
<glyph glyph-name="Tcaron" horiz-adv-x="648" unicode="Ť" d="M262 0v586h-222v114h568v-114h-222v-586h-124zM502 893l-121 -135h-114l-121 135h102l77 -57l77 57h100z"/>
<glyph glyph-name="tcaron" horiz-adv-x="411" unicode="ť" d="M253 -9q-152 0 -152 155v278h-67v104h67v145h121v-145h142v-104h-142v-259q0 -66 65 -66q39 0 75 18v-99q-48 -27 -109 -27zM295 589l12 190h94v-3l-56 -187h-50z"/>
<glyph glyph-name="Umacron" horiz-adv-x="757" unicode="Ū" d="M377 -11q-139 0 -218.5 79t-79.5 229v403h123v-398q0 -96 46.5 -147.5t130.5 -51.5q83 0 129.5 49.5t46.5 144.5v403h123v-397q0 -153 -80 -233.5t-221 -80.5zM199 768v90h359v-90h-359z"/>
<glyph glyph-name="umacron" horiz-adv-x="620" unicode="ū" d="M136 606v88h340v-88h-340zM258 -11q-88 0 -138 55t-50 148v336h121v-300q0 -61 29.5 -94.5t83.5 -33.5q53 0 86 34.5t33 95.5v298h122v-528h-122v82q-63 -93 -165 -93z"/>
<glyph glyph-name="Ubreve" horiz-adv-x="757" unicode="Ŭ" d="M377 -11q-139 0 -218.5 79t-79.5 229v403h123v-398q0 -96 46.5 -147.5t130.5 -51.5q83 0 129.5 49.5t46.5 144.5v403h123v-397q0 -153 -80 -233.5t-221 -80.5zM378 748q-73 0 -120 35.5t-53 98.5h86q19 -50 87 -50t87 50h86q-6 -63 -53 -98.5t-120 -35.5z"/>
<glyph glyph-name="ubreve" horiz-adv-x="620" unicode="ŭ" d="M306 593q-73 0 -119.5 38.5t-51.5 106.5h83q20 -61 88 -61t88 61h84q-6 -68 -52.5 -106.5t-119.5 -38.5zM258 -11q-88 0 -138 55t-50 148v336h121v-300q0 -61 29.5 -94.5t83.5 -33.5q53 0 86 34.5t33 95.5v298h122v-528h-122v82q-63 -93 -165 -93z"/>
<glyph glyph-name="Uring" horiz-adv-x="757" unicode="Ů" d="M378 781q28 0 46.5 17t18.5 42q0 24 -18.5 41t-46.5 17t-46 -17t-18 -41q0 -25 18 -42t46 -17zM378 734q-49 0 -84 30t-35 76q0 45 35 75t84 30t84 -30t35 -75q0 -46 -35 -76t-84 -30zM377 -11q-139 0 -218.5 79t-79.5 229v403h123v-398q0 -96 46.5 -147.5t130.5 -51.5 q83 0 129.5 49.5t46.5 144.5v403h123v-397q0 -153 -80 -233.5t-221 -80.5z"/>
<glyph glyph-name="uring" horiz-adv-x="620" unicode="ů" d="M258 -11q-88 0 -138 55t-50 148v336h121v-300q0 -61 29.5 -94.5t83.5 -33.5q53 0 86 34.5t33 95.5v298h122v-528h-122v82q-63 -93 -165 -93zM306 625q28 0 47.5 19.5t19.5 47.5t-19.5 47.5t-47.5 19.5t-47.5 -19.5t-19.5 -47.5t19.5 -47.5t47.5 -19.5zM306 580 q-48 0 -82 33t-34 79t34 79t82 33t82 -33t34 -79t-34 -79t-82 -33z"/>
<glyph glyph-name="Uhungarumlaut" horiz-adv-x="757" unicode="Ű" d="M409 757l112 145l106 -48l-127 -97h-91zM234 757l112 145l106 -48l-127 -97h-91zM377 -11q-139 0 -218.5 79t-79.5 229v403h123v-398q0 -96 46.5 -147.5t130.5 -51.5q83 0 129.5 49.5t46.5 144.5v403h123v-397q0 -153 -80 -233.5t-221 -80.5z"/>
<glyph glyph-name="uhungarumlaut" horiz-adv-x="620" unicode="ű" d="M166 595l103 164l106 -49l-121 -115h-88zM336 595l105 164l106 -49l-123 -115h-88zM258 -11q-88 0 -138 55t-50 148v336h121v-300q0 -61 29.5 -94.5t83.5 -33.5q53 0 86 34.5t33 95.5v298h122v-528h-122v82q-63 -93 -165 -93z"/>
<glyph glyph-name="Uogonek" horiz-adv-x="757" unicode="Ų" d="M458 -106v-58q-24 -2 -32 -2q-63 1 -97.5 24t-34.5 60q0 36 33 74q-117 14 -182.5 92t-65.5 213v403h123v-398q0 -96 46.5 -147.5t130.5 -51.5q83 0 129.5 49.5t46.5 144.5v403h123v-397q0 -144 -71 -223.5t-197 -88.5q-24 -27 -24 -54q0 -43 72 -43z"/>
<glyph glyph-name="uogonek" horiz-adv-x="620" unicode="ų" d="M258 -11q-88 0 -138 55t-50 148v336h121v-300q0 -61 29.5 -94.5t83.5 -33.5q53 0 86 34.5t33 95.5v298h122v-528h-28q-33 -33 -33 -63q0 -43 72 -43v-58q-24 -2 -32 -2q-63 1 -97.5 24t-34.5 60q0 40 40 82h-9v82q-63 -93 -165 -93z"/>
<glyph glyph-name="Wcircumflex" horiz-adv-x="1116" unicode="Ŵ" d="M380 758l121 135h114l121 -135h-102l-77 58l-77 -58h-100zM280 -5l-244 705h133l167 -519l172 521h104l172 -521l167 519h129l-243 -705h-107l-172 503l-172 -503h-106z"/>
<glyph glyph-name="wcircumflex" horiz-adv-x="861" unicode="ŵ" d="M203 -4l-171 532h124l106 -362l117 364h104l117 -364l108 362h122l-173 -532h-109l-118 361l-119 -361h-108zM258 595l116 147h112l117 -147h-96l-78 67l-77 -67h-94z"/>
<glyph glyph-name="Ycircumflex" horiz-adv-x="716" unicode="Ŷ" d="M180 757l121 135h114l121 -135h-102l-77 58l-77 -58h-100zM296 0v276l-278 424h146l195 -309l198 309h141l-278 -421v-279h-124z"/>
<glyph glyph-name="ycircumflex" horiz-adv-x="596" unicode="ŷ" d="M126 595l116 147h112l117 -147h-96l-78 67l-77 -67h-94zM305 136l137 392h126l-210 -543q-32 -81 -71 -114.5t-103 -33.5q-66 0 -125 32l41 90q37 -20 71 -20q26 0 43 13.5t32 46.5l-220 529h130z"/>
<glyph glyph-name="Ydieresis" horiz-adv-x="716" unicode="Ÿ" d="M193 757v112h125v-112h-125zM399 757v112h124v-112h-124zM296 0v276l-278 424h146l195 -309l198 309h141l-278 -421v-279h-124z"/>
<glyph glyph-name="Zacute" horiz-adv-x="702" unicode="Ź" d="M308 758l112 145l110 -48l-128 -97h-94zM65 0v91l413 500h-400v109h561v-91l-414 -500h414v-109h-574z"/>
<glyph glyph-name="zacute" horiz-adv-x="560" unicode="ź" d="M52 0v83l305 346h-294v99h448v-83l-305 -346h305v-99h-459zM234 595l104 164l110 -49l-123 -115h-91z"/>
<glyph glyph-name="Zdotaccent" horiz-adv-x="702" unicode="Ż" d="M65 0v91l413 500h-400v109h561v-91l-414 -500h414v-109h-574zM293 758v112h128v-112h-128z"/>
<glyph glyph-name="zdotaccent" horiz-adv-x="560" unicode="ż" d="M219 595v119h126v-119h-126zM52 0v83l305 346h-294v99h448v-83l-305 -346h305v-99h-459z"/>
<glyph glyph-name="Zcaron" horiz-adv-x="702" unicode="Ž" d="M65 0v91l413 500h-400v109h561v-91l-414 -500h414v-109h-574zM535 893l-121 -135h-114l-121 135h102l77 -57l77 57h100z"/>
<glyph glyph-name="zcaron" horiz-adv-x="560" unicode="ž" d="M52 0v83l305 346h-294v99h448v-83l-305 -346h305v-99h-459zM455 742l-117 -147h-112l-116 147h96l77 -67l78 67h94z"/>
<glyph glyph-name="florin" horiz-adv-x="527" unicode="ƒ" d="M97 -5q-35 0 -56 5v99q21 -3 40 -3q62 0 73 67l35 193h-80v101h97l18 93q15 78 55.5 116.5t119.5 38.5q53 0 92 -11v-102q-40 10 -69 10q-35 0 -54 -18t-27 -59l-12 -68h127v-101h-145l-38 -211q-14 -80 -56 -115t-120 -35z"/>
<glyph glyph-name="Aringacute" horiz-adv-x="790" unicode="Ǻ" d="M395 687q28 0 46.5 17t18.5 41q0 25 -18.5 41.5t-46.5 16.5t-46 -16.5t-18 -41.5q0 -24 18 -41t46 -17zM340 879l117 129l109 -49l-131 -80h-95zM273 278h241l-121 280zM30 0l289 663q-43 31 -43 82q0 46 35 76t84 30t84 -30t35 -76q0 -50 -43 -81l289 -664h-130l-71 169 h-331l-72 -169h-126z"/>
<glyph glyph-name="aringacute" horiz-adv-x="587" unicode="ǻ" d="M294 638q28 0 47.5 19.5t19.5 47.5t-19.5 47.5t-47.5 19.5t-47.5 -19.5t-19.5 -47.5t19.5 -47.5t47.5 -19.5zM294 593q-48 0 -82 33t-34 79t34 79t82 33t82 -33t34 -79t-34 -79t-82 -33zM262 77q61 0 101 31.5t40 81.5v36q-54 21 -120 21q-58 0 -91 -23.5t-33 -64.5v-2 q0 -37 29 -58.5t74 -21.5zM228 -11q-78 0 -132.5 43.5t-54.5 119.5v2q0 83 59 126.5t159 43.5q73 0 142 -22v13q0 56 -33.5 85.5t-97.5 29.5q-72 0 -151 -33l-32 95q96 43 199 43q118 0 175 -59q57 -56 57 -163v-313h-118v66q-64 -77 -172 -77zM245 849l110 138l108 -49 l-126 -89h-92z"/>
<glyph glyph-name="AEacute" horiz-adv-x="1045" unicode="Ǽ" d="M291 278h196v315h-20zM12 0l391 700h581v-110h-374v-182h329v-110h-329v-188h379v-110h-502v169h-254l-94 -169h-127zM572 758l112 145l110 -48l-128 -97h-94z"/>
<glyph glyph-name="aeacute" horiz-adv-x="952" unicode="ǽ" d="M260 78q84 0 157 68q-16 40 -20 81q-56 20 -116 20q-58 0 -90 -23.5t-32 -64.5v-2q0 -36 29 -57.5t72 -21.5zM514 301h272q-6 61 -41 100t-93 39q-55 0 -92.5 -38.5t-45.5 -100.5zM240 -11q-86 0 -142.5 43.5t-56.5 119.5v2q0 83 58.5 126.5t157.5 43.5q71 0 140 -22v13 q0 56 -33 85.5t-96 29.5q-70 0 -149 -33l-32 95q96 43 197 43q137 0 186 -86q69 90 185 90q118 0 184 -81.5t66 -202.5q0 -22 -1 -34h-388q10 -63 51 -98.5t100 -35.5q79 0 144 63l71 -63q-84 -99 -217 -99q-127 0 -204 90q-107 -89 -221 -89zM424 595l104 164l110 -49 l-123 -115h-91z"/>
<glyph glyph-name="Oslashacute" horiz-adv-x="850" unicode="Ǿ" d="M375 768l112 145l110 -48l-128 -97h-94zM186 351q0 -85 46 -152l322 364q-59 38 -130 38q-103 0 -170.5 -72.5t-67.5 -176.5v-1zM426 99q104 0 171.5 72.5t67.5 176.5v1q0 85 -47 152l-322 -364q57 -38 130 -38zM678 705h121l-99 -112q91 -100 91 -241v-2 q0 -150 -104 -256t-263 -106q-116 0 -205 58l-47 -51h-121l98 112q-90 101 -90 241v2q0 150 104 256t263 106q113 0 204 -59z"/>
<glyph glyph-name="oslashacute" horiz-adv-x="657" unicode="ǿ" d="M280 595l104 164l110 -49l-123 -115h-91zM165 264q0 -52 26 -95l219 244q-37 23 -83 23q-72 0 -117 -49.5t-45 -121.5v-1zM329 90q73 0 118 49.5t45 121.5v2q0 50 -26 94l-219 -245q36 -22 82 -22zM515 534h110l-81 -91q66 -75 66 -178v-2q0 -114 -81 -194.5t-202 -80.5 q-85 0 -152 42l-33 -35h-110l80 89q-65 75 -65 177v2q0 115 81 195.5t201 80.5q83 0 152 -42z"/>
<glyph glyph-name="Scommaaccent" horiz-adv-x="640" unicode="Ș" d="M335 -10q-167 0 -292 112l74 88q105 -91 221 -91q57 0 90.5 24.5t33.5 63.5v2q0 39 -32 62t-126 45q-60 15 -100 30t-72 39t-46.5 58.5t-14.5 81.5v2q0 90 67 146.5t172 56.5q144 0 254 -88l-66 -93q-97 72 -190 72q-52 0 -83 -23.5t-31 -59.5v-2q0 -41 33.5 -63.5 t133.5 -46.5q116 -28 170 -74.5t54 -130.5v-2q0 -97 -69 -153t-181 -56zM257 -275l-8 39q70 10 70 61v7h-54v101h118v-86q0 -116 -126 -122z"/>
<glyph glyph-name="scommaaccent" horiz-adv-x="501" unicode="ș" d="M257 -10q-124 0 -224 79l54 82q88 -65 173 -65q39 0 60.5 15.5t21.5 41.5v2q0 38 -106 70q-8 3 -12 4q-36 10 -60 20t-51 27.5t-40.5 44.5t-13.5 63v2q0 73 53.5 117t134.5 44q103 0 194 -60l-48 -86q-82 50 -149 50q-34 0 -54 -14.5t-20 -37.5v-2q0 -25 27 -39.5 t82 -32.5q7 -2 10 -3q35 -11 59 -21.5t50.5 -28.5t40.5 -44t14 -60v-2q0 -80 -55 -123t-141 -43zM186 -272l-8 39q70 10 70 61v7h-54v101h118v-86q0 -116 -126 -122z"/>
<glyph glyph-name="schwa" horiz-adv-x="604" unicode="ə" d="M437 227h-271q6 -61 41 -100t93 -39q55 0 92 38.5t45 100.5zM286 540q116 0 193.5 -76.5t77.5 -197.5v-2q0 -115 -73 -195t-185 -80q-120 0 -186.5 81.5t-66.5 202.5q0 10 2 34h388q-10 63 -51 98.5t-101 35.5q-78 0 -143 -63l-71 63q82 99 216 99z"/>
<glyph glyph-name="circumflex" horiz-adv-x="500" unicode="ˆ" d="M78 595l116 147h112l117 -147h-96l-78 67l-77 -67h-94z"/>
<glyph glyph-name="caron" horiz-adv-x="500" unicode="ˇ" d="M423 742l-117 -147h-112l-116 147h96l77 -67l78 67h94z"/>
<glyph glyph-name="breve" horiz-adv-x="500" unicode="˘" d="M250 593q-73 0 -119.5 38.5t-51.5 106.5h83q20 -61 88 -61t88 61h84q-6 -68 -52.5 -106.5t-119.5 -38.5z"/>
<glyph glyph-name="dotaccent" horiz-adv-x="500" unicode="˙" d="M187 595v119h126v-119h-126z"/>
<glyph glyph-name="ring" horiz-adv-x="500" unicode="˚" d="M250 638q28 0 47.5 19.5t19.5 47.5t-19.5 47.5t-47.5 19.5t-47.5 -19.5t-19.5 -47.5t19.5 -47.5t47.5 -19.5zM250 593q-48 0 -82 33t-34 79t34 79t82 33t82 -33t34 -79t-34 -79t-82 -33z"/>
<glyph glyph-name="ogonek" horiz-adv-x="500" unicode="˛" d="M346 -106v-58q-24 -2 -32 -2q-63 1 -97.5 24t-34.5 60q0 44 52 94l81 -5q-41 -38 -41 -70q0 -43 72 -43z"/>
<glyph glyph-name="tilde" horiz-adv-x="500" unicode="˜" d="M327 595q-31 0 -84 21q-42 19 -60 19q-21 0 -32 -11t-23 -39l-67 21q17 64 42.5 94t69.5 30q31 0 84 -21q42 -19 60 -19q21 0 32 11t23 39l67 -20q-17 -64 -42.5 -94.5t-69.5 -30.5z"/>
<glyph glyph-name="hungarumlaut" horiz-adv-x="500" unicode="˝" d="M63 595l103 164l106 -49l-121 -115h-88zM233 595l105 164l106 -49l-123 -115h-88z"/>
<glyph glyph-name="commaaccent" horiz-adv-x="500" unicode="̦" d="M183 -272l-8 39q70 10 70 61v7h-54v101h118v-86q0 -116 -126 -122z"/>
<glyph glyph-name="baht" horiz-adv-x="644" unicode="฿" d="M185 102h66l24 206h-90v-206zM469 501q0 40 -24 64.5t-68 30.5l-23 -198q54 3 84.5 29t30.5 74zM185 398h100l23 200h-123v-200zM351 308h-7l-23 -206h34q63 0 98.5 27t35.5 77q0 49 -35.5 75.5t-102.5 26.5zM324 780h81l-10 -82q85 -9 135.5 -55.5t50.5 -121.5 q0 -113 -111 -159q63 -24 97 -63t34 -105q0 -93 -67.5 -143.5t-181.5 -50.5h-39l-12 -118h-81l12 118h-157v700h240z"/>
<glyph glyph-name="Wgrave" horiz-adv-x="1116" unicode="Ẁ" d="M280 -5l-244 705h133l167 -519l172 521h104l172 -521l167 519h129l-243 -705h-107l-172 503l-172 -503h-106zM607 758h-95l-127 97l109 48z"/>
<glyph glyph-name="wgrave" horiz-adv-x="861" unicode="ẁ" d="M387 595l-123 115l110 49l104 -164h-91zM203 -4l-171 532h124l106 -362l117 364h104l117 -364l108 362h122l-173 -532h-109l-118 361l-119 -361h-108z"/>
<glyph glyph-name="Wacute" horiz-adv-x="1116" unicode="Ẃ" d="M280 -5l-244 705h133l167 -519l172 521h104l172 -521l167 519h129l-243 -705h-107l-172 503l-172 -503h-106zM508 758l112 145l110 -48l-128 -97h-94z"/>
<glyph glyph-name="wacute" horiz-adv-x="861" unicode="ẃ" d="M203 -4l-171 532h124l106 -362l117 364h104l117 -364l108 362h122l-173 -532h-109l-118 361l-119 -361h-108zM381 595l104 164l110 -49l-123 -115h-91z"/>
<glyph glyph-name="Wdieresis" horiz-adv-x="1116" unicode="Ẅ" d="M280 -5l-244 705h133l167 -519l172 521h104l172 -521l167 519h129l-243 -705h-107l-172 503l-172 -503h-106zM393 758v112h125v-112h-125zM599 758v112h124v-112h-124z"/>
<glyph glyph-name="wdieresis" horiz-adv-x="861" unicode="ẅ" d="M203 -4l-171 532h124l106 -362l117 364h104l117 -364l108 362h122l-173 -532h-109l-118 361l-119 -361h-108zM271 595v119h123v-119h-123zM466 595v119h123v-119h-123z"/>
<glyph glyph-name="Ygrave" horiz-adv-x="716" unicode="Ỳ" d="M407 757h-95l-127 97l109 48zM296 0v276l-278 424h146l195 -309l198 309h141l-278 -421v-279h-124z"/>
<glyph glyph-name="ygrave" horiz-adv-x="596" unicode="ỳ" d="M255 595l-123 115l110 49l104 -164h-91zM305 136l137 392h126l-210 -543q-32 -81 -71 -114.5t-103 -33.5q-66 0 -125 32l41 90q37 -20 71 -20q26 0 43 13.5t32 46.5l-220 529h130z"/>
<glyph glyph-name="enspace" horiz-adv-x="500" unicode=" "/>
<glyph glyph-name="emspace" horiz-adv-x="1000" unicode=" "/>
<glyph glyph-name="threeperemspace" horiz-adv-x="333" unicode=" "/>
<glyph glyph-name="fourperemspace" horiz-adv-x="250" unicode=" "/>
<glyph glyph-name="figurespace" horiz-adv-x="600" unicode=" "/>
<glyph glyph-name="thinspace" horiz-adv-x="133" unicode=" "/>
<glyph glyph-name="hairspace" horiz-adv-x="75" unicode=" "/>
<glyph glyph-name="endash" horiz-adv-x="528" unicode="–" d="M56 249v115h416v-115h-416z"/>
<glyph glyph-name="emdash" horiz-adv-x="898" unicode="—" d="M56 249v115h786v-115h-786z"/>
<glyph glyph-name="quoteleft" horiz-adv-x="269" unicode="‘" d="M63 422v117q0 81 38 120.5t116 45.5l13 -52q-86 -15 -86 -82q0 -2 0.5 -5.5t0.5 -5.5h51v-138h-133z"/>
<glyph glyph-name="quoteright" horiz-adv-x="269" unicode="’" d="M52 417l-13 52q86 15 86 85v9h-52v137h133v-117q0 -81 -38 -120.5t-116 -45.5z"/>
<glyph glyph-name="quotesinglbase" horiz-adv-x="269" unicode="‚" d="M47 -146l-13 52q86 17 86 85v9h-52v138h133v-117q0 -81 -38 -120.5t-116 -46.5z"/>
<glyph glyph-name="quotedblleft" horiz-adv-x="501" unicode="“" d="M63 422v117q0 81 38 120.5t116 45.5l13 -52q-86 -15 -86 -82q0 -2 0.5 -5.5t0.5 -5.5h51v-138h-133zM295 422v117q0 81 38 120.5t116 45.5l13 -52q-86 -15 -86 -82q0 -2 0.5 -5.5t0.5 -5.5h51v-138h-133z"/>
<glyph glyph-name="quotedblright" horiz-adv-x="501" unicode="”" d="M52 417l-13 52q86 15 86 85v9h-52v137h133v-117q0 -81 -38 -120.5t-116 -45.5zM284 417l-13 52q86 15 86 83q0 2 -0.5 5.5t-0.5 5.5h-51v137h133v-117q0 -81 -38 -120.5t-116 -45.5z"/>
<glyph glyph-name="quotedblbase" horiz-adv-x="501" unicode="„" d="M47 -146l-13 52q86 17 86 85v9h-52v138h133v-117q0 -81 -38 -120.5t-116 -46.5zM279 -146l-13 52q86 17 86 83q0 2 -0.5 5.5t-0.5 5.5h-51v138h133v-117q0 -81 -38 -120.5t-116 -46.5z"/>
<glyph glyph-name="dagger" horiz-adv-x="410" unicode="†" d="M169 238l9 275l-122 -9v71l121 -9l-12 134h80l-11 -134l120 9v-71l-121 9l8 -275h-72z"/>
<glyph glyph-name="daggerdbl" horiz-adv-x="430" unicode="‡" d="M175 0l12 134l-121 -9v71l121 -9l-8 163l8 163l-121 -9v71l121 -9l-12 134h80l-11 -134l120 9v-71l-121 9l8 -163l-8 -163l121 9v-71l-120 9l11 -134h-80z"/>
<glyph glyph-name="bullet" horiz-adv-x="491" unicode="•" d="M246 211q-59 0 -100.5 41t-41.5 99v2q0 58 42 99.5t100 41.5q57 0 99 -41.5t42 -99.5v-2q0 -58 -41.5 -99t-99.5 -41z"/>
<glyph glyph-name="ellipsis" horiz-adv-x="792" unicode="…" d="M68 0v134h130v-134h-130zM331 0v134h130v-134h-130zM594 0v134h130v-134h-130z"/>
<glyph glyph-name="perthousand" horiz-adv-x="1228" unicode="‰" d="M1014 -8q-72 0 -118 51.5t-46 125.5v2q0 75 46.5 127t119.5 52q72 0 118 -51.5t46 -125.5v-2q0 -74 -46.5 -126.5t-119.5 -52.5zM1016 69q34 0 54.5 29t20.5 71v2q0 43 -22 72.5t-55 29.5q-34 0 -54.5 -29t-20.5 -71v-2q0 -43 22 -72.5t55 -29.5zM635 -8q-72 0 -118 51.5 t-46 125.5v2q0 75 46.5 127t119.5 52q72 0 118 -51.5t46 -125.5v-2q0 -74 -46.5 -126.5t-119.5 -52.5zM637 69q34 0 54.5 29t20.5 71v2q0 43 -22 72.5t-55 29.5q-34 0 -54.5 -29t-20.5 -71v-2q0 -43 22 -72.5t55 -29.5zM730 700l-276 -373l-236 -327h-99l275 372l237 328h99 zM212 350q-72 0 -118 51.5t-46 125.5v2q0 75 46.5 127t119.5 52t118.5 -51.5t45.5 -125.5v-2q0 -75 -46.5 -127t-119.5 -52zM214 427q34 0 54.5 29t20.5 71v2q0 43 -22 72.5t-55 29.5q-34 0 -54.5 -29t-20.5 -71v-2q0 -43 22 -72.5t55 -29.5z"/>
<glyph glyph-name="guilsinglleft" horiz-adv-x="354" unicode="‹" d="M217 42l-173 218v8l173 218l85 -43l-125 -178l125 -178z"/>
<glyph glyph-name="guilsinglright" horiz-adv-x="354" unicode="›" d="M138 42l-85 44l125 177l-125 178l85 45l172 -218v-8z"/>
<glyph glyph-name="fraction" horiz-adv-x="100" unicode="⁄" d="M-223 0l251 364l224 336h71l-251 -364l-224 -336h-71z"/>
<glyph glyph-name="zero.sup" d="M199 752q-36 0 -58.5 -35.5t-22.5 -97.5v-7q0 -62 22.5 -97.5t59.5 -35.5q36 0 59 35.5t23 97.5v7q0 61 -23.5 97t-59.5 36zM199 411q-68 0 -112 55.5t-44 146.5v4q0 91 44.5 147t112.5 56t113 -56t45 -146v-4q0 -91 -45 -147t-114 -56z" unicode="⁰"/>
<glyph glyph-name="four.sup" d="M242 562v172l-133 -172h133zM308 504v-85h-67v85h-188l-10 67l190 243h75v-252h53v-58h-53z" unicode="⁴"/>
<glyph glyph-name="five.sup" d="M196 411q-80 0 -150 60l44 54q55 -47 107 -47q34 0 55.5 18t21.5 46t-21.5 44.5t-56.5 16.5q-42 0 -78 -16l-46 28l15 195h241v-67h-181l-7 -88q28 11 70 11q59 0 98 -31.5t39 -88.5q0 -61 -41.5 -98t-109.5 -37z" unicode="⁵"/>
<glyph glyph-name="six.sup" d="M199 474q33 0 53.5 19.5t20.5 50.5q0 32 -20 51t-53 19q-34 0 -54.5 -19t-20.5 -51q0 -31 21.5 -50.5t52.5 -19.5zM201 411q-62 0 -103 39q-50 52 -50 153v2q0 98 44 156.5t124 58.5q65 0 115 -41l-36 -57q-38 32 -81 32q-37 0 -62 -31.5t-28 -81.5q38 31 90 31 q55 0 92 -33t37 -91q0 -60 -40 -98.5t-102 -38.5z" unicode="⁶"/>
<glyph glyph-name="seven.sup" d="M170 419h-82l169 322h-192v69h276v-56z" unicode="⁷"/>
<glyph glyph-name="eight.sup" d="M200 591q-35 0 -57 -17t-22 -44t21.5 -44t57.5 -17t57 16.5t21 44.5t-21.5 44.5t-56.5 16.5zM200 761q-31 0 -50 -15.5t-19 -40.5t19.5 -41.5t49.5 -16.5t49.5 16t19.5 42q0 25 -19.5 40.5t-49.5 15.5zM200 411q-66 0 -107 31.5t-41 84.5q0 65 66 96q-55 29 -55 88 q0 47 38.5 78t99.5 31q60 0 98 -31t38 -78q0 -57 -55 -88q66 -32 66 -95q0 -53 -41.5 -85t-106.5 -32z" unicode="⁸"/>
<glyph glyph-name="nine.sup" d="M200 613q34 0 54.5 19.5t20.5 52.5q0 32 -21.5 52t-52.5 20q-32 0 -53 -20t-21 -52q0 -33 20 -52.5t53 -19.5zM199 820q63 0 103 -40q50 -50 50 -152v-2q0 -100 -44 -157.5t-124 -57.5q-69 0 -121 44l36 57q40 -35 87 -35q37 0 62 30t27 79q-38 -31 -88 -31 q-55 0 -92.5 33t-37.5 93t40.5 99.5t101.5 39.5z" unicode="⁹"/>
<glyph glyph-name="zero.inf" d="M199 199q-36 0 -58.5 -35.5t-22.5 -97.5v-7q0 -62 22.5 -97.5t59.5 -35.5q36 0 59 35.5t23 97.5v7q0 61 -23.5 97t-59.5 36zM199 -142q-68 0 -112 55.5t-44 146.5v4q0 91 44.5 147t112.5 56t113 -56t45 -146v-4q0 -91 -45 -147t-114 -56z" unicode="₀"/>
<glyph glyph-name="one.inf" horiz-adv-x="325" unicode="₁" d="M222 -132h-72v318l-79 -30l-20 61l117 45h54v-394z"/>
<glyph glyph-name="two.inf" d="M55 -132v62l138 116q39 33 54.5 54t15.5 45t-17.5 39.5t-43.5 15.5q-50 0 -93 -59l-52 41q30 42 64.5 63.5t84.5 21.5q59 0 96 -32.5t37 -83.5q0 -39 -19 -69t-66 -68l-100 -82h188v-64h-287z" unicode="₂"/>
<glyph glyph-name="three.inf" d="M197 -142q-88 0 -152 64l44 53q49 -51 109 -51q28 0 48 16t20 42q0 27 -23 42t-61 15h-42l-12 46l113 106h-172v66h264v-57l-116 -106q54 -5 88 -32.5t34 -77.5q0 -56 -39 -91t-103 -35z" unicode="₃"/>
<glyph glyph-name="four.inf" d="M242 9v172l-133 -172h133zM308 -49v-85h-67v85h-188l-10 67l190 243h75v-252h53v-58h-53z" unicode="₄"/>
<glyph glyph-name="five.inf" d="M196 -142q-80 0 -150 60l44 54q55 -47 107 -47q34 0 55.5 18t21.5 46t-21.5 44.5t-56.5 16.5q-42 0 -78 -16l-46 28l15 195h241v-67h-181l-7 -88q28 11 70 11q59 0 98 -31.5t39 -88.5q0 -61 -41.5 -98t-109.5 -37z" unicode="₅"/>
<glyph glyph-name="six.inf" d="M199 -79q33 0 53.5 19.5t20.5 50.5q0 32 -20 51t-53 19q-34 0 -54.5 -19t-20.5 -51q0 -31 21.5 -50.5t52.5 -19.5zM201 -142q-62 0 -103 39q-50 52 -50 153v2q0 98 44 156.5t124 58.5q65 0 115 -41l-36 -57q-38 32 -81 32q-37 0 -62 -31.5t-28 -81.5q38 31 90 31 q55 0 92 -33t37 -91q0 -60 -40 -98.5t-102 -38.5z" unicode="₆"/>
<glyph glyph-name="seven.inf" d="M170 -134h-82l169 322h-192v69h276v-56z" unicode="₇"/>
<glyph glyph-name="eight.inf" d="M200 38q-35 0 -57 -17t-22 -44t21.5 -44t57.5 -17t57 16.5t21 44.5t-21.5 44.5t-56.5 16.5zM200 208q-31 0 -50 -15.5t-19 -40.5t19.5 -41.5t49.5 -16.5t49.5 16t19.5 42q0 25 -19.5 40.5t-49.5 15.5zM200 -142q-66 0 -107 31.5t-41 84.5q0 65 66 96q-55 29 -55 88 q0 47 38.5 78t99.5 31q60 0 98 -31t38 -78q0 -57 -55 -88q66 -32 66 -95q0 -53 -41.5 -85t-106.5 -32z" unicode="₈"/>
<glyph glyph-name="nine.inf" d="M200 60q34 0 54.5 19.5t20.5 52.5q0 32 -21.5 52t-52.5 20q-32 0 -53 -20t-21 -52q0 -33 20 -52.5t53 -19.5zM199 267q63 0 103 -40q50 -50 50 -152v-2q0 -100 -44 -157.5t-124 -57.5q-69 0 -121 44l36 57q40 -35 87 -35q37 0 62 30t27 79q-38 -31 -88 -31 q-55 0 -92.5 33t-37.5 93t40.5 99.5t101.5 39.5z" unicode="₉"/>
<glyph glyph-name="colonmonetary" horiz-adv-x="614" unicode="₡" d="M157 343q0 -133 74 -197l61 442q-62 -22 -98.5 -83.5t-36.5 -153.5v-8zM281 114q35 -14 82 -14h1l68 487q-36 13 -71 13h-12zM456 780h62l-15 -108q32 -14 72 -45l-47 -103q-22 19 -44 35l-63 -451q44 13 98 64l60 -80q-81 -76 -170 -90l-16 -120h-62l16 117 q-41 1 -78 12l-17 -129h-61l21 152q-77 40 -122 121t-45 190v9q0 139 72.5 231t187.5 111l11 84h62l-11 -79q48 -2 77 -9z"/>
<glyph glyph-name="naira" horiz-adv-x="834" unicode="₦" d="M582 187h3v233h-147zM249 527v-243h152l-149 243h-3zM801 210h-102v-210h-126l-130 210h-192v-210h-116v210h-101v77h101v130h-101v77h101v206h136l126 -206h186v206h116v-206h102v-77h-102v-130h102v-77z"/>
<glyph glyph-name="rupee" horiz-adv-x="1098" unicode="₨" d="M194 349h131q62 0 98.5 32.5t36.5 89.5v3q0 59 -36.5 89.5t-100.5 30.5h-129v-245zM864 -10q-118 0 -218 73l51 80q85 -60 170 -60q36 0 59 16t23 42v2q0 24 -22 39.5t-89 37.5q-88 29 -127.5 63.5t-39.5 93.5v2q0 72 52.5 114.5t132.5 42.5q99 0 185 -55l-44 -85 q-79 48 -143 48q-35 0 -56.5 -15.5t-21.5 -38.5v-2q0 -24 23.5 -41t89.5 -38q88 -28 126.5 -62.5t38.5 -94.5v-2q0 -75 -54 -117.5t-136 -42.5zM78 0v700h252q114 0 180.5 -58.5t66.5 -162.5v-4q0 -77 -39 -129t-105 -76l164 -270h-134l-148 246h-121v-246h-116z"/>
<glyph glyph-name="won" horiz-adv-x="1114" unicode="₩" d="M776 133h6l63 277h-141zM336 133h6l72 277h-142zM554 561l-72 -271h149l-71 271h-6zM1038 700l-58 -213h99v-80h-120l-31 -113h151v-80h-172l-58 -216h-140l-60 216h-185l-59 -216h-140l-58 216h-172v80h150l-30 113h-120v80h98l-57 213h132l50 -213h173l58 215h140 l57 -215h174l50 213h128z"/>
<glyph glyph-name="sheqel" horiz-adv-x="627" unicode="₪" d="M343 344q0 85 -87 85h-100v-429h-93v528h211q65 0 100 -34t35 -99v-194h-66v143zM233 139l-28 191h66l23 -147q13 -83 97 -83h80v428h93v-528h-174q-71 0 -108.5 34t-48.5 105z"/>
<glyph glyph-name="Euro" horiz-adv-x="720" unicode="€" d="M674 580l-93 -69q-34 47 -69 69t-85 22q-52 0 -92.5 -32.5t-61.5 -89.5h215v-85h-234q-2 -14 -2 -44q0 -27 1 -40h235v-86h-216q21 -60 63 -93.5t100 -33.5q47 0 81 23t72 73l88 -65q-47 -68 -104.5 -104.5t-137.5 -36.5q-109 0 -185 64t-106 173h-91v86h77q-1 12 -1 38 q0 31 2 46h-78v85h94q31 105 105.5 168.5t178.5 63.5q85 0 142.5 -34.5t101.5 -97.5z"/>
<glyph glyph-name="peso" horiz-adv-x="747" unicode="₱" d="M251 594v-104h255q-10 51 -49.5 77.5t-103.5 26.5h-102zM354 313q64 0 104.5 30t49.5 81h-257v-111h103zM131 0v420h-101v74h101v206h235q111 0 181.5 -56.5t82.5 -149.5h97v-74h-97q-12 -99 -90 -155.5t-188 -56.5h-97v-208h-124z"/>
<glyph glyph-name="published" horiz-adv-x="830" unicode="℗" d="M360 352h73q36 0 57 17.5t21 46.5v2q0 30 -20.5 46.5t-57.5 16.5h-73v-129zM286 167v380h153q67 0 107 -34.5t40 -93.5v-2q0 -62 -44.5 -96t-110.5 -34h-71v-120h-74zM414 24q138 0 231.5 95.5t93.5 230.5v2q0 135 -93 229.5t-230 94.5q-138 0 -231.5 -95.5t-93.5 -230.5 v-2q0 -135 93 -229.5t230 -94.5zM414 -12q-151 0 -256 105.5t-105 254.5v2q0 149 106 255.5t257 106.5t256 -105.5t105 -254.5v-2q0 -149 -106 -255.5t-257 -106.5z"/>
<glyph glyph-name="servicemark" horiz-adv-x="705" unicode="℠" d="M168 386q-79 0 -138 51l32 40q55 -43 109 -43q28 0 44 11t16 29q0 17 -15.5 27t-57.5 20q-58 14 -85.5 33t-27.5 58q0 42 31.5 68t82.5 26q71 0 120 -41l-31 -41q-47 32 -90 32q-26 0 -41 -10.5t-15 -26.5q0 -18 16 -28t59 -20q55 -12 83 -33t28 -58q0 -43 -33.5 -68.5 t-86.5 -25.5zM356 392v308h63l93 -146l92 146h61v-308h-56v219l-95 -147h-6l-95 147v-219h-57z"/>
<glyph glyph-name="trademark" horiz-adv-x="690" unicode="™" d="M121 392v254h-95v54h249v-54h-95v-254h-59zM341 392v308h63l93 -146l93 146h61v-308h-57v219l-95 -147h-6l-95 147v-219h-57z"/>
<glyph glyph-name="onethird" horiz-adv-x="825" unicode="⅓" d="M106 0l251 364l224 336h71l-251 -364l-224 -336h-71zM221 311h-72v318l-79 -30l-20 61l117 46h54v-395zM632 -10q-88 0 -152 64l44 53q49 -51 109 -51q28 0 48 16t20 42q0 27 -23 42t-61 15h-42l-12 46l113 106h-172v66h264v-57l-116 -106q54 -5 88 -32.5t34 -77.5 q0 -56 -39 -91t-103 -35z"/>
<glyph glyph-name="twothirds" horiz-adv-x="900" unicode="⅔" d="M177 0l251 364l224 336h71l-251 -364l-224 -336h-71zM45 311v63l138 115q39 33 54.5 54t15.5 45t-17.5 39.5t-43.5 15.5q-50 0 -93 -59l-52 41q30 43 64 64t85 21q59 0 96 -32.5t37 -83.5q0 -39 -19 -69t-66 -68l-100 -81h188v-65h-287zM707 -10q-88 0 -152 64l44 53 q49 -51 109 -51q28 0 48 16t20 42q0 27 -23 42t-61 15h-42l-12 46l113 106h-172v66h264v-57l-116 -106q54 -5 88 -32.5t34 -77.5q0 -56 -39 -91t-103 -35z"/>
<glyph glyph-name="onefifth" horiz-adv-x="825" unicode="⅕" d="M111 0l251 364l224 336h71l-251 -364l-224 -336h-71zM221 311h-72v318l-79 -30l-20 61l117 46h54v-395zM631 -10q-80 0 -150 60l44 54q55 -47 107 -47q34 0 55.5 18t21.5 46t-21.5 44.5t-56.5 16.5q-42 0 -78 -16l-46 28l15 195h241v-67h-181l-7 -88q28 11 70 11 q59 0 98 -31.5t39 -88.5q0 -61 -41.5 -98t-109.5 -37z"/>
<glyph glyph-name="twofifths" horiz-adv-x="900" unicode="⅖" d="M45 311v63l138 115q39 33 54.5 54t15.5 45t-17.5 39.5t-43.5 15.5q-50 0 -93 -59l-52 41q30 43 64 64t85 21q59 0 96 -32.5t37 -83.5q0 -39 -19 -69t-66 -68l-100 -81h188v-65h-287zM187 0l251 364l224 336h71l-251 -364l-224 -336h-71zM706 -10q-80 0 -150 60l44 54 q55 -47 107 -47q34 0 55.5 18t21.5 46t-21.5 44.5t-56.5 16.5q-42 0 -78 -16l-46 28l15 195h241v-67h-181l-7 -88q28 11 70 11q59 0 98 -31.5t39 -88.5q0 -61 -41.5 -98t-109.5 -37z"/>
<glyph glyph-name="threefifths" horiz-adv-x="900" unicode="⅗" d="M187 301q-88 0 -152 64l44 53q49 -51 109 -51q28 0 48 16t20 42q0 28 -23 43t-61 15h-42l-12 45l113 106h-172v66h264v-57l-116 -106q54 -4 88 -32t34 -78q0 -56 -39 -91t-103 -35zM172 0l251 364l224 336h71l-251 -364l-224 -336h-71zM706 -10q-80 0 -150 60l44 54 q55 -47 107 -47q34 0 55.5 18t21.5 46t-21.5 44.5t-56.5 16.5q-42 0 -78 -16l-46 28l15 195h241v-67h-181l-7 -88q28 11 70 11q59 0 98 -31.5t39 -88.5q0 -61 -41.5 -98t-109.5 -37z"/>
<glyph glyph-name="fourfifths" horiz-adv-x="900" unicode="⅘" d="M232 452v172l-133 -172h133zM187 0l251 364l224 336h71l-251 -364l-224 -336h-71zM706 -10q-80 0 -150 60l44 54q55 -47 107 -47q34 0 55.5 18t21.5 46t-21.5 44.5t-56.5 16.5q-42 0 -78 -16l-46 28l15 195h241v-67h-181l-7 -88q28 11 70 11q59 0 98 -31.5t39 -88.5 q0 -61 -41.5 -98t-109.5 -37zM298 394v-85h-67v85h-188l-10 68l190 243h75v-253h53v-58h-53z"/>
<glyph glyph-name="onesixth" horiz-adv-x="825" unicode="⅙" d="M634 53q32 0 53 19.5t21 50.5q0 32 -20 51t-53 19q-34 0 -54.5 -19t-20.5 -51q0 -31 21.5 -50.5t52.5 -19.5zM221 311h-72v318l-79 -30l-20 61l117 46h54v-395zM117 0l251 364l224 336h71l-251 -364l-224 -336h-71zM636 -10q-62 0 -103 39q-50 52 -50 153v2 q0 98 44 156.5t124 58.5q65 0 115 -41l-36 -57q-38 32 -81 32q-37 0 -62 -31.5t-28 -81.5q38 31 90 31q55 0 92 -33t37 -91q0 -60 -40 -98.5t-102 -38.5z"/>
<glyph glyph-name="fivesixths" horiz-adv-x="900" unicode="⅚" d="M709 53q33 0 53.5 19.5t20.5 50.5q0 32 -20 51t-53 19q-34 0 -54.5 -19t-20.5 -51q0 -31 21.5 -50.5t52.5 -19.5zM177 0l251 364l224 336h71l-251 -364l-224 -336h-71zM186 301q-80 0 -150 60l44 55q54 -48 107 -48q34 0 55.5 18t21.5 46t-21.5 45t-56.5 17 q-44 0 -78 -17l-46 28l15 195h241v-67h-181l-7 -88q28 11 70 11q59 0 98 -31.5t39 -88.5q0 -61 -41.5 -98t-109.5 -37zM711 -10q-62 0 -103 39q-50 52 -50 153v2q0 98 44 156.5t124 58.5q65 0 115 -41l-36 -57q-38 32 -81 32q-37 0 -62 -31.5t-28 -81.5q38 31 90 31 q55 0 92 -33t37 -91q0 -60 -40 -98.5t-102 -38.5z"/>
<glyph glyph-name="oneeighth" horiz-adv-x="825" unicode="⅛" d="M113 0l251 364l224 336h71l-251 -364l-224 -336h-71zM221 311h-72v318l-79 -30l-20 61l117 46h54v-395zM635 170q-35 0 -57 -17t-22 -44t21.5 -44t57.5 -17t57 16.5t21 44.5t-21.5 44.5t-56.5 16.5zM635 340q-31 0 -50 -15.5t-19 -40.5t19.5 -41.5t49.5 -16.5t49.5 16 t19.5 42q0 25 -19.5 40.5t-49.5 15.5zM635 -10q-66 0 -107 31.5t-41 84.5q0 65 66 96q-55 29 -55 88q0 47 38.5 78t99.5 31q60 0 98 -31t38 -78q0 -57 -55 -88q66 -32 66 -95q0 -53 -41.5 -85t-106.5 -32z"/>
<glyph glyph-name="threeeighths" horiz-adv-x="900" unicode="⅜" d="M187 301q-88 0 -152 64l44 53q49 -51 109 -51q28 0 48 16t20 42q0 28 -23 43t-61 15h-42l-12 45l113 106h-172v66h264v-57l-116 -106q54 -4 88 -32t34 -78q0 -56 -39 -91t-103 -35zM177 0l251 364l224 336h71l-251 -364l-224 -336h-71zM710 170q-35 0 -57 -17t-22 -44 t21.5 -44t57.5 -17t57 16.5t21 44.5t-21.5 44.5t-56.5 16.5zM710 340q-31 0 -50 -15.5t-19 -40.5t19.5 -41.5t49.5 -16.5t49.5 16t19.5 42q0 25 -19.5 40.5t-49.5 15.5zM710 -10q-66 0 -107 31.5t-41 84.5q0 65 66 96q-55 29 -55 88q0 47 38.5 78t99.5 31q60 0 98 -31 t38 -78q0 -57 -55 -88q66 -32 66 -95q0 -53 -41.5 -85t-106.5 -32z"/>
<glyph glyph-name="fiveeighths" horiz-adv-x="900" unicode="⅝" d="M186 301q-80 0 -150 60l44 55q54 -48 107 -48q34 0 55.5 18t21.5 46t-21.5 45t-56.5 17q-44 0 -78 -17l-46 28l15 195h241v-67h-181l-7 -88q28 11 70 11q59 0 98 -31.5t39 -88.5q0 -61 -41.5 -98t-109.5 -37zM177 0l251 364l224 336h71l-251 -364l-224 -336h-71zM710 170 q-35 0 -57 -17t-22 -44t21.5 -44t57.5 -17t57 16.5t21 44.5t-21.5 44.5t-56.5 16.5zM710 340q-31 0 -50 -15.5t-19 -40.5t19.5 -41.5t49.5 -16.5t49.5 16t19.5 42q0 25 -19.5 40.5t-49.5 15.5zM710 -10q-66 0 -107 31.5t-41 84.5q0 65 66 96q-55 29 -55 88q0 47 38.5 78 t99.5 31q60 0 98 -31t38 -78q0 -57 -55 -88q66 -32 66 -95q0 -53 -41.5 -85t-106.5 -32z"/>
<glyph glyph-name="seveneighths" horiz-adv-x="900" unicode="⅞" d="M147 0l251 364l224 336h71l-251 -364l-224 -336h-71zM170 309h-82l169 323h-192v68h276v-56zM710 170q-35 0 -57 -17t-22 -44t21.5 -44t57.5 -17t57 16.5t21 44.5t-21.5 44.5t-56.5 16.5zM710 340q-31 0 -50 -15.5t-19 -40.5t19.5 -41.5t49.5 -16.5t49.5 16t19.5 42 q0 25 -19.5 40.5t-49.5 15.5zM710 -10q-66 0 -107 31.5t-41 84.5q0 65 66 96q-55 29 -55 88q0 47 38.5 78t99.5 31q60 0 98 -31t38 -78q0 -57 -55 -88q66 -32 66 -95q0 -53 -41.5 -85t-106.5 -32z"/>
<glyph glyph-name="minus" horiz-adv-x="634" unicode="−" d="M566 296h-498v113h498v-113z"/>
<glyph glyph-name="Q.alt" d="M426 102q103 0 169.5 71t66.5 175v2q0 104 -67.5 176.5t-170.5 72.5t-169.5 -71.5t-66.5 -175.5v-2q0 -104 67.5 -176t170.5 -72zM666 -101l-115 110q-63 -21 -127 -21q-159 0 -262 105t-103 255v2q0 150 104 256t263 106t262 -105t103 -255v-2q0 -162 -119 -270 l178 -177v-4h-184z" horiz-adv-x="850"/>
<glyph glyph-name="a.alt" d="M323 94q63 0 108 47.5t45 121.5v2q0 74 -45 121.5t-108 47.5q-64 0 -108 -46t-44 -123v-2q0 -75 44.5 -122t107.5 -47zM294 -11q-99 0 -172 74.5t-73 199.5v2q0 126 72.5 200t172.5 74q109 0 180 -93v82h121v-528h-121v88q-70 -99 -180 -99z" horiz-adv-x="671"/>
<glyph glyph-name="aacute.alt" d="M323 94q63 0 108 47.5t45 121.5v2q0 74 -45 121.5t-108 47.5q-64 0 -108 -46t-44 -123v-2q0 -75 44.5 -122t107.5 -47zM294 -11q-99 0 -172 74.5t-73 199.5v2q0 126 72.5 200t172.5 74q109 0 180 -93v82h121v-528h-121v88q-70 -99 -180 -99zM293 595l104 164l110 -49 l-123 -115h-91z" horiz-adv-x="671"/>
<glyph glyph-name="abreve.alt" d="M341 593q-73 0 -119.5 38.5t-51.5 106.5h83q20 -61 88 -61t88 61h84q-6 -68 -52.5 -106.5t-119.5 -38.5zM323 94q63 0 108 47.5t45 121.5v2q0 74 -45 121.5t-108 47.5q-64 0 -108 -46t-44 -123v-2q0 -75 44.5 -122t107.5 -47zM294 -11q-99 0 -172 74.5t-73 199.5v2 q0 126 72.5 200t172.5 74q109 0 180 -93v82h121v-528h-121v88q-70 -99 -180 -99z" horiz-adv-x="671"/>
<glyph glyph-name="acircumflex.alt" d="M323 94q63 0 108 47.5t45 121.5v2q0 74 -45 121.5t-108 47.5q-64 0 -108 -46t-44 -123v-2q0 -75 44.5 -122t107.5 -47zM294 -11q-99 0 -172 74.5t-73 199.5v2q0 126 72.5 200t172.5 74q109 0 180 -93v82h121v-528h-121v88q-70 -99 -180 -99zM169 595l116 147h112 l117 -147h-96l-78 67l-77 -67h-94z" horiz-adv-x="671"/>
<glyph glyph-name="adieresis.alt" d="M323 94q63 0 108 47.5t45 121.5v2q0 74 -45 121.5t-108 47.5q-64 0 -108 -46t-44 -123v-2q0 -75 44.5 -122t107.5 -47zM294 -11q-99 0 -172 74.5t-73 199.5v2q0 126 72.5 200t172.5 74q109 0 180 -93v82h121v-528h-121v88q-70 -99 -180 -99zM182 595v119h123v-119h-123z M377 595v119h123v-119h-123z" horiz-adv-x="671"/>
<glyph glyph-name="agrave.alt" d="M298 595l-123 115l110 49l104 -164h-91zM323 94q63 0 108 47.5t45 121.5v2q0 74 -45 121.5t-108 47.5q-64 0 -108 -46t-44 -123v-2q0 -75 44.5 -122t107.5 -47zM294 -11q-99 0 -172 74.5t-73 199.5v2q0 126 72.5 200t172.5 74q109 0 180 -93v82h121v-528h-121v88 q-70 -99 -180 -99z" horiz-adv-x="671"/>
<glyph glyph-name="amacron.alt" d="M171 606v88h340v-88h-340zM323 94q63 0 108 47.5t45 121.5v2q0 74 -45 121.5t-108 47.5q-64 0 -108 -46t-44 -123v-2q0 -75 44.5 -122t107.5 -47zM294 -11q-99 0 -172 74.5t-73 199.5v2q0 126 72.5 200t172.5 74q109 0 180 -93v82h121v-528h-121v88q-70 -99 -180 -99z " horiz-adv-x="671"/>
<glyph glyph-name="aogonek.alt" d="M323 94q63 0 108 47.5t45 121.5v2q0 74 -45 121.5t-108 47.5q-64 0 -108 -46t-44 -123v-2q0 -75 44.5 -122t107.5 -47zM607 -106v-58q-24 -2 -32 -2q-63 1 -97.5 24t-34.5 60q0 40 40 82h-9v88q-70 -99 -180 -99q-99 0 -172 74.5t-73 199.5v2q0 126 72.5 200t172.5 74 q109 0 180 -93v82h121v-528h-27q-33 -33 -33 -63q0 -43 72 -43z" horiz-adv-x="671"/>
<glyph glyph-name="aring.alt" d="M323 94q63 0 108 47.5t45 121.5v2q0 74 -45 121.5t-108 47.5q-64 0 -108 -46t-44 -123v-2q0 -75 44.5 -122t107.5 -47zM294 -11q-99 0 -172 74.5t-73 199.5v2q0 126 72.5 200t172.5 74q109 0 180 -93v82h121v-528h-121v88q-70 -99 -180 -99zM341 638q28 0 47.5 19.5 t19.5 47.5t-19.5 47.5t-47.5 19.5t-47.5 -19.5t-19.5 -47.5t19.5 -47.5t47.5 -19.5zM341 593q-48 0 -82 33t-34 79t34 79t82 33t82 -33t34 -79t-34 -79t-82 -33z" horiz-adv-x="671"/>
<glyph glyph-name="aring.alt2" d="M228 603q0 -28 19.5 -47.5t47.5 -19.5q27 0 47 19.5t20 47.5q0 27 -20 47t-47 20q-28 0 -47.5 -20t-19.5 -47zM262 77q61 0 101 31.5t40 81.5v36q-54 21 -120 21q-58 0 -91 -23.5t-33 -64.5v-2q0 -37 29 -58.5t74 -21.5zM228 -11q-78 0 -132.5 43.5t-54.5 119.5v2 q0 83 59 126.5t159 43.5q73 0 142 -22v13q0 56 -33.5 85.5t-97.5 29.5q-72 0 -151 -33l-32 95q63 28 123 37q-31 31 -31 74q0 46 34 79t82 33t82 -33t34 -79q0 -48 -38 -79q53 -13 88 -48q57 -56 57 -163v-313h-118v66q-64 -77 -172 -77z" horiz-adv-x="587"/>
<glyph glyph-name="aringacute.alt" d="M323 94q63 0 108 47.5t45 121.5v2q0 74 -45 121.5t-108 47.5q-64 0 -108 -46t-44 -123v-2q0 -75 44.5 -122t107.5 -47zM294 -11q-99 0 -172 74.5t-73 199.5v2q0 126 72.5 200t172.5 74q109 0 180 -93v82h121v-528h-121v88q-70 -99 -180 -99zM341 638q28 0 47.5 19.5 t19.5 47.5t-19.5 47.5t-47.5 19.5t-47.5 -19.5t-19.5 -47.5t19.5 -47.5t47.5 -19.5zM341 593q-48 0 -82 33t-34 79t34 79t82 33t82 -33t34 -79t-34 -79t-82 -33zM292 849l110 138l108 -49l-127 -89h-91z" horiz-adv-x="671"/>
<glyph glyph-name="aringacute.alt2" d="M228 603q0 -28 19.5 -47.5t47.5 -19.5q27 0 47 19.5t20 47.5q0 27 -20 47t-47 20q-28 0 -47.5 -20t-19.5 -47zM262 77q61 0 101 31.5t40 81.5v36q-54 21 -120 21q-58 0 -91 -23.5t-33 -64.5v-2q0 -37 29 -58.5t74 -21.5zM228 -11q-78 0 -132.5 43.5t-54.5 119.5v2 q0 83 59 126.5t159 43.5q73 0 142 -22v13q0 56 -33.5 85.5t-97.5 29.5q-72 0 -151 -33l-32 95q63 28 123 37q-31 31 -31 74q0 46 34 79t82 33t82 -33t34 -79q0 -48 -38 -79q53 -13 88 -48q57 -56 57 -163v-313h-118v66q-64 -77 -172 -77zM245 750l110 138l108 -49l-126 -89 h-92z" horiz-adv-x="587"/>
<glyph glyph-name="atilde.alt" d="M422 595q-32 0 -84 21q-42 19 -60 19q-20 0 -31.5 -11t-23.5 -39l-67 21q17 64 42.5 94t69.5 30q32 0 84 -21q42 -19 60 -19q20 0 31.5 11t23.5 39l67 -20q-17 -64 -42.5 -94.5t-69.5 -30.5zM323 94q63 0 108 47.5t45 121.5v2q0 74 -45 121.5t-108 47.5q-64 0 -108 -46 t-44 -123v-2q0 -75 44.5 -122t107.5 -47zM294 -11q-99 0 -172 74.5t-73 199.5v2q0 126 72.5 200t172.5 74q109 0 180 -93v82h121v-528h-121v88q-70 -99 -180 -99z" horiz-adv-x="671"/>
<glyph glyph-name="three.alt" d="M311 -12q-165 0 -272 122l85 79q80 -90 189 -90q58 0 91.5 27.5t33.5 74.5v2q0 47 -40.5 72.5t-113.5 25.5h-75v104h78q60 0 96 27.5t36 72.5v2q0 42 -32.5 68t-88.5 26q-85 0 -158 -88l-87 70q49 63 107 96t140 33q108 0 174.5 -52.5t66.5 -134.5v-2q0 -113 -104 -164 q123 -47 123 -158v-2q0 -92 -67.5 -151.5t-181.5 -59.5z" horiz-adv-x="610"/>
<glyph glyph-name="registered.alt" d="M341 365h94q35 0 55 16t20 43v2q0 28 -20 43.5t-55 15.5h-94v-120zM269 171v379h169q75 0 115 -40q31 -31 31 -80v-2q0 -44 -23.5 -73t-64.5 -41l102 -143h-86l-92 131h-79v-131h-72zM414 24q138 0 231.5 95.5t93.5 230.5v2q0 135 -93 229.5t-230 94.5 q-138 0 -231.5 -95.5t-93.5 -230.5v-2q0 -135 93 -229.5t230 -94.5zM414 -12q-151 0 -256 105.5t-105 254.5v2q0 149 106 255.5t257 106.5t256 -105.5t105 -254.5v-2q0 -149 -106 -255.5t-257 -106.5z" horiz-adv-x="830"/>
<glyph glyph-name="R_p" d="M194 349h131q62 0 98.5 32.5t36.5 89.5v3q0 59 -36.5 89.5t-100.5 30.5h-129v-245zM924 90q53 0 89 46t36 123v11q0 77 -36 123.5t-89 46.5t-90.5 -47t-37.5 -123v-11q0 -76 37.5 -122.5t90.5 -46.5zM684 -160v689h114v-84q61 95 157 95q86 0 147.5 -70.5t61.5 -197.5 v-14q0 -126 -61 -197t-148 -71q-94 0 -157 90v-240h-114zM78 0v700h252q114 0 180.5 -58.5t66.5 -162.5v-4q0 -77 -39 -129t-105 -76l164 -270h-134l-148 246h-121v-246h-116z" horiz-adv-x="1201"/>
<glyph glyph-name="onehalf.alt" d="M197 0l251 364l224 336h71l-251 -364l-224 -336h-71zM565 0v62l138 116q39 33 54.5 54t15.5 45t-17.5 39.5t-43.5 15.5q-50 0 -93 -59l-52 41q30 42 64.5 63.5t84.5 21.5q59 0 96 -32.5t37 -83.5q0 -39 -19 -69t-66 -68l-100 -82h188v-64h-287zM347 311h-280v64h109v254 l-95 -35l-20 61l132 51h55v-331h99v-64z" horiz-adv-x="900"/>
<glyph glyph-name="onethird.alt" d="M187 0l251 364l224 336h71l-251 -364l-224 -336h-71zM707 -10q-88 0 -152 64l44 53q49 -51 109 -51q28 0 48 16t20 42q0 27 -23 42t-61 15h-42l-12 46l113 106h-172v66h264v-57l-116 -106q54 -5 88 -32.5t34 -77.5q0 -56 -39 -91t-103 -35zM347 311h-280v64h109v254 l-95 -35l-20 61l132 51h55v-331h99v-64z" horiz-adv-x="900"/>
<glyph glyph-name="onequarter.alt" d="M742 141v172l-133 -172h133zM202 0l251 364l224 336h71l-251 -364l-224 -336h-71zM347 311h-280v64h109v254l-95 -35l-20 61l132 51h55v-331h99v-64zM808 83v-85h-67v85h-188l-10 67l190 243h75v-252h53v-58h-53z" horiz-adv-x="900"/>
<glyph glyph-name="onefifth.alt" d="M192 0l251 364l224 336h71l-251 -364l-224 -336h-71zM706 -10q-80 0 -150 60l44 54q55 -47 107 -47q34 0 55.5 18t21.5 46t-21.5 44.5t-56.5 16.5q-42 0 -78 -16l-46 28l15 195h241v-67h-181l-7 -88q28 11 70 11q59 0 98 -31.5t39 -88.5q0 -61 -41.5 -98t-109.5 -37z M347 311h-280v64h109v254l-95 -35l-20 61l132 51h55v-331h99v-64z" horiz-adv-x="900"/>
<glyph glyph-name="onesixth.alt" d="M709 53q33 0 53.5 19.5t20.5 50.5q0 32 -20 51t-53 19q-34 0 -54.5 -19t-20.5 -51q0 -31 21.5 -50.5t52.5 -19.5zM192 0l251 364l224 336h71l-251 -364l-224 -336h-71zM347 311h-280v64h109v254l-95 -35l-20 61l132 51h55v-331h99v-64zM711 -10q-62 0 -103 39 q-50 52 -50 153v2q0 98 44 156.5t124 58.5q65 0 115 -41l-36 -57q-38 32 -81 32q-37 0 -62 -31.5t-28 -81.5q38 31 90 31q55 0 92 -33t37 -91q0 -60 -40 -98.5t-102 -38.5z" horiz-adv-x="900"/>
<glyph glyph-name="oneeighth.alt" d="M192 0l251 364l224 336h71l-251 -364l-224 -336h-71zM710 170q-35 0 -57 -17t-22 -44t21.5 -44t57.5 -17t57 16.5t21 44.5t-21.5 44.5t-56.5 16.5zM710 340q-31 0 -50 -15.5t-19 -40.5t19.5 -41.5t49.5 -16.5t49.5 16t19.5 42q0 25 -19.5 40.5t-49.5 15.5zM710 -10 q-66 0 -107 31.5t-41 84.5q0 65 66 96q-55 29 -55 88q0 47 38.5 78t99.5 31q60 0 98 -31t38 -78q0 -57 -55 -88q66 -32 66 -95q0 -53 -41.5 -85t-106.5 -32zM347 311h-280v64h109v254l-95 -35l-20 61l132 51h55v-331h99v-64z" horiz-adv-x="900"/>
<glyph glyph-name="one.sup_alt" d="M352 421h-280v63h109v255l-95 -35l-20 61l132 50h55v-331h99v-63z"/>
<glyph glyph-name="one.inf_alt" d="M352 -132h-280v63h109v255l-95 -35l-20 61l132 50h55v-331h99v-63z"/>
<glyph glyph-name="zero.tab" d="M299 607q-62 0 -98.5 -64t-36.5 -186v-12q0 -122 37 -186.5t99 -64.5t99 64t37 185v13q0 121 -37 186t-100 65zM299 -11q-115 0 -184.5 95t-69.5 259v13q0 164 70 259.5t185 95.5t185 -95.5t70 -257.5v-13q0 -164 -70.5 -260t-185.5 -96z" horiz-adv-x="600"/>
<glyph glyph-name="one.tab" d="M562 0h-484v101h192v478l-170 -61l-29 100l233 87h84v-604h174v-101z" horiz-adv-x="600"/>
<glyph glyph-name="two.tab" d="M542 0h-493v96l235 209q72 65 99.5 104.5t27.5 84.5q0 49 -32 77.5t-82 28.5q-47 0 -84 -25.5t-78 -80.5l-83 71q53 74 110 109.5t143 35.5q104 0 167 -57t63 -149v-2q0 -69 -32.5 -120.5t-107.5 -117.5l-178 -157h325v-107z" horiz-adv-x="600"/>
<glyph glyph-name="three.tab" d="M294 -12q-154 0 -257 110l77 88q85 -88 182 -88q53 0 89.5 30t36.5 79v2q0 50 -40.5 76.5t-113.5 26.5h-64l-24 76l200 206h-308v106h460v-97l-203 -201q94 -7 154 -53t60 -135v-2q0 -98 -70 -161t-179 -63z" horiz-adv-x="600"/>
<glyph glyph-name="three.tab_alt" d="M298 -12q-158 0 -259 119l81 78q74 -89 183 -89q58 0 93 29t35 77q0 49 -40.5 75t-114.5 26h-72v101h81q61 0 97 28t36 75q0 43 -33 70t-87 27q-93 0 -166 -88l-80 70q93 126 248 126q109 0 174 -52t65 -140q0 -110 -110 -161q122 -47 122 -165q0 -91 -70 -148.5 t-183 -57.5z" horiz-adv-x="600"/>
<glyph glyph-name="four.tab" d="M374 248v328l-237 -328h237zM372 0v153h-323l-22 111l319 440h138v-455h91v-96h-91v-153h-112z" horiz-adv-x="600"/>
<glyph glyph-name="five.tab" d="M290 -12q-140 0 -251 101l70 89q93 -82 183 -82q62 0 100 32.5t38 88.5v2q0 53 -38.5 85t-104.5 32t-134 -31l-74 48l24 347h415v-109h-315l-12 -170q59 19 115 19q105 0 174.5 -55.5t69.5 -160.5v-2q0 -105 -73 -169.5t-187 -64.5z" horiz-adv-x="600"/>
<glyph glyph-name="six.tab" d="M304 90q58 0 94 37t36 95t-35.5 93.5t-92.5 35.5q-60 0 -96 -36.5t-36 -93.5t37 -94t93 -37zM330 450q94 0 158 -59t64 -161v-3q0 -105 -69.5 -172t-173.5 -67q-110 0 -174 66q-43 43 -63.5 104.5t-20.5 168.5v4q0 175 73 277.5t211 102.5q111 0 190 -68l-56 -95 q-68 55 -137 55q-56 0 -93.5 -36.5t-52 -83.5t-15.5 -100q59 67 159 67z" horiz-adv-x="600"/>
<glyph glyph-name="seven.tab" d="M413 590h-347v110h484v-94l-304 -606h-136z" horiz-adv-x="600"/>
<glyph glyph-name="eight.tab" d="M300 403q51 0 84.5 30t33.5 76v2q0 43 -33 71.5t-85 28.5t-85.5 -28.5t-33.5 -71.5v-2q0 -46 34 -76t85 -30zM300 89q63 0 99.5 30.5t36.5 78.5v2q0 49 -38.5 78.5t-97.5 29.5t-97.5 -29.5t-38.5 -78.5v-2q0 -48 36.5 -78.5t99.5 -30.5zM300 -10q-111 0 -182.5 55.5 t-71.5 144.5v3q0 120 120 170q-100 56 -100 157v2q0 81 67 134.5t167 53.5t166.5 -53.5t66.5 -134.5v-2q0 -102 -100 -157q120 -54 120 -168v-2q0 -93 -71 -148t-182 -55z" horiz-adv-x="600"/>
<glyph glyph-name="nine.tab" d="M296 610q-58 0 -94 -38t-36 -97q0 -60 35.5 -96t92.5 -36q61 0 97 37t36 96t-37 96.5t-94 37.5zM270 244q-94 0 -158 59.5t-64 163.5v3q0 106 69.5 174t174.5 68q109 0 173 -66q43 -43 63.5 -104.5t20.5 -168.5v-4q0 -175 -73 -277.5t-211 -102.5q-115 0 -200 72l56 95 q77 -59 147 -59q78 0 117 64.5t43 148.5q-60 -66 -158 -66z" horiz-adv-x="600"/>
<glyph glyph-name="period.tab" d="M80 0v143h140v-143h-140z" horiz-adv-x="300"/>
<glyph glyph-name="comma.tab" d="M62 -146l-12 52q85 16 85 85v9h-55v143h140v-122q0 -81 -39.5 -120.5t-118.5 -46.5z" horiz-adv-x="300"/>
<glyph glyph-name="colon.tab" d="M81 0v141h138v-141h-138zM81 388v140h138v-140h-138z" horiz-adv-x="300"/>
<glyph glyph-name="semicolon.tab" d="M62 -146l-12 52q85 16 85 85v9h-54v141h138v-120q0 -81 -39 -120.5t-118 -46.5zM81 388v140h138v-140h-138z" horiz-adv-x="300"/>
<glyph glyph-name="twodotleader.tab" d="M83 0v136h134v-136h-134zM383 0v136h134v-136h-134z" horiz-adv-x="600"/>
<glyph glyph-name="periodcentered.tab" d="M80 235v143h140v-143h-140z" horiz-adv-x="300"/>
<glyph glyph-name="slash.tab" d="M591 798l-491 -926h-106l492 926h105z" horiz-adv-x="600"/>
<glyph glyph-name="bar.tab" d="M101 -128v926h98v-926h-98z" horiz-adv-x="300"/>
<glyph glyph-name="underscore.tab" d="M-2 -160v94h604v-94h-604z" horiz-adv-x="600"/>
<glyph glyph-name="dollar.tab" d="M178 513q0 -34 22.5 -57.5t79.5 -41.5l24 193h-9q-55 0 -86 -26t-31 -68zM443 191q0 34 -23 58t-80 41l-24 -196q60 0 93.5 25.5t33.5 71.5zM404 780l-11 -88q76 -15 144 -63l-48 -90q-56 39 -112 56l-24 -199q101 -28 149.5 -75.5t48.5 -121.5q0 -92 -67 -146.5 t-173 -54.5h-3l-14 -116h-83l16 124q-102 22 -188 88l54 87q75 -60 149 -78l26 206q-103 29 -150 74.5t-47 120.5q0 90 64.5 144t167.5 54h8l10 78h83z" horiz-adv-x="600"/>
<glyph glyph-name="sterling.tab" d="M131 382v92q0 112 64 176q60 60 161 60q124 0 199 -97l-81 -79q-53 64 -115 64q-46 0 -75 -29q-32 -30 -32 -95v-92h229v-100h-229v-177h302v-105h-497v76l74 23v183h-74v100h74z" horiz-adv-x="600"/>
<glyph glyph-name="Euro.tab" d="M33 396v81h81q26 107 95 170.5t168 63.5q117 0 193 -91l-70 -81q-57 68 -124 68q-51 0 -88 -34t-55 -96h188v-81h-201q-2 -14 -2 -42v-6q0 -26 1 -39h202v-81h-190q17 -64 54.5 -99.5t88.5 -35.5q39 0 69 17.5t61 53.5l70 -73q-83 -102 -205 -102q-96 0 -164.5 64 t-91.5 175h-80v81h70q-1 12 -1 37v7q0 28 1 43h-70z" horiz-adv-x="600"/>
<glyph glyph-name="yen.tab" d="M80 181h163v84h-163v81h142l-210 354h132l158 -287l158 287h128l-211 -354h143v-81h-162v-84h162v-81h-162v-100h-115v100h-163v81z" horiz-adv-x="600"/>
<glyph glyph-name="cent.tab" d="M170 348q0 -54 24 -94t66 -58l66 332q-68 -2 -112 -51.5t-44 -126.5v-2zM445 706l-19 -95q64 -19 119 -79l-67 -73q-39 41 -75 56l-66 -333q76 3 144 71l65 -65q-90 -102 -220 -102h-4l-18 -92h-88l21 106q-79 26 -128 93t-49 156v2q0 115 77.5 194t194.5 79h9l17 82h87z " horiz-adv-x="600"/>
<glyph glyph-name="numbersign.tab" d="M240 444l-27 -184h146l27 184h-146zM30 262h93l26 180h-88v99h103l23 159h93l-23 -159h141l23 159h93l-23 -159h79v-99h-94l-26 -180h89v-98h-103l-23 -164h-94l24 164h-140l-24 -164h-94l24 164h-79v98z" horiz-adv-x="600"/>
<glyph glyph-name="paragraph.tab" d="M378 0v244h-42q-127 0 -206 59t-79 168q0 107 75.5 168t200.5 61h174v-700h-123z" horiz-adv-x="600"/>
<glyph glyph-name="section.tab" d="M225 424q-32 0 -51.5 -14.5t-19.5 -37.5q0 -24 23 -39.5t81 -31.5q90 -24 117 -24h3q31 0 49.5 14t18.5 37q0 24 -23 39.5t-81 31.5q-84 24 -117 25zM306 -10q-131 0 -216 83l60 73q75 -65 156 -65q36 0 54 13.5t18 34.5q0 24 -24.5 39.5t-97.5 36.5q-116 33 -161 64.5 t-45 85.5q0 45 30.5 74t84.5 40q-56 40 -56 101q0 60 51.5 100t133.5 40q130 0 217 -82l-61 -74q-75 65 -156 65q-36 0 -54 -13.5t-18 -34.5q0 -24 24.5 -39.5t97.5 -36.5q116 -33 161.5 -65t45.5 -85q0 -45 -31 -74t-85 -40q56 -40 56 -101q0 -60 -51.5 -100t-133.5 -40z " horiz-adv-x="600"/>
<glyph glyph-name="degree.tab" d="M301 374q57 0 93 38t36 94t-37 94t-94 38q-56 0 -92.5 -38t-36.5 -94t37 -94t94 -38zM299 303q-84 0 -145 59.5t-61 143.5t62 143.5t146 59.5t145 -59.5t61 -143.5t-62 -143.5t-146 -59.5z" horiz-adv-x="600"/>
<glyph glyph-name="percent.tab" d="M452 288q-49 0 -49 -106v-15q0 -106 49 -106t49 106v15q0 106 -49 106zM148 640q-49 0 -49 -107v-15q0 -106 49 -106t49 106v15q0 107 -49 107zM444 700h66l-190 -361l-164 -339h-66l190 362zM452 355q53 0 86 -48t33 -128v-8q0 -80 -33 -129t-86 -49t-86 48.5t-33 128.5 v8q0 80 33 128.5t86 48.5zM148 707q53 0 86 -48.5t33 -128.5v-8q0 -80 -33 -128.5t-86 -48.5t-86 48t-33 128v9q0 80 33 128.5t86 48.5z" horiz-adv-x="600"/>
<glyph glyph-name="quotedbl.tab" d="M104 401l46 299h137v-5l-120 -294h-63zM339 401l46 299h137v-5l-120 -294h-63z" horiz-adv-x="600"/>
<glyph glyph-name="quotesingle.tab" d="M71 401l46 299h139v-5l-121 -294h-64z" horiz-adv-x="300"/>
<glyph glyph-name="plus.tab" d="M539 299h-185l1 -187h-110l1 187h-185v106h185l-1 188h110l-1 -188h185v-106z" horiz-adv-x="600"/>
<glyph glyph-name="minus.tab" d="M539 296h-478v113h478v-113z" horiz-adv-x="600"/>
<glyph glyph-name="divide.tab" d="M233 80v128h134v-128h-134zM539 300h-478v104h478v-104zM233 497v127h134v-127h-134z" horiz-adv-x="600"/>
<glyph glyph-name="equal.tab" d="M523 176h-446v108h446v-108zM523 420h-446v108h446v-108z" horiz-adv-x="600"/>
<glyph glyph-name="multiply.tab" d="M455 120l-156 159l-156 -159l-75 75l159 156l-159 156l77 77l156 -159l156 159l75 -75l-159 -156l159 -156z" horiz-adv-x="600"/>
<glyph glyph-name="less.tab" d="M515 80l-451 218v108l451 219v-115l-336 -157l336 -157v-116z" horiz-adv-x="600"/>
<glyph glyph-name="greater.tab" d="M536 298l-451 -218v114l336 157l-336 157v117l451 -219v-108z" horiz-adv-x="600"/>
<glyph glyph-name="plusminus.tab" d="M539 0h-478v103h478v-103zM539 373h-185l1 -181h-110l1 181h-185v107l185 -1l-1 181h110l-1 -181l185 1v-107z" horiz-adv-x="600"/>
<glyph glyph-name="space.tab" horiz-adv-x="300"/>
<glyph glyph-name="NUL" horiz-adv-x="0"/>
<glyph glyph-name="hfjslug" d="M426 283q-16 0 -16 17q0 6 4.5 11.5t11.5 5.5t11.5 -5.5t4.5 -11.5q0 -17 -16 -17zM487 299h-11v17h11q10 0 10 -8q0 -9 -10 -9zM342 423q-8 -21 -20 -21q-16 0 -16 25q0 19 16 35zM327 479q-12 22 -12 32q0 19 14 19q13 0 13 -19q0 -15 -15 -32zM241 323l14 -47h8l11 34 h1l11 -34h8l14 47h-8l-10 -35h-1l-11 35h-7l-11 -35h-1l-10 35h-8zM132 323v-46h8v32l25 -32h7v46h-8v-32l-25 32h-7zM193 323v-46h34v7h-26v13h23v7h-23v12h26v7h-34zM370 301l-13 22h-9l18 -29v-17h8v17l18 29h-9zM426 276q10 0 17 7t7 17q0 9 -7 16.5t-17 7.5t-17 -7.5 t-7 -16.5q0 -10 7 -17t17 -7zM488 292l10 -15h9l-12 17q10 4 10 14q0 15 -17 15h-20v-46h8v15h12zM523 323v-46h8v12l8 8l15 -20h10l-20 26l18 20h-10l-20 -24h-1v24h-8zM371 465l-13 3q-4 -18 -8 -30h-1l-16 31q23 21 23 42q0 31 -27 31q-12 0 -20 -9t-8 -22t14 -39 q-23 -18 -23 -47q0 -16 8 -26.5t21 -10.5q19 0 29 24h1l12 -24l12 6l-17 32q6 14 13 39zM460 394q10 -4 21 -4q31 0 31 36v137h-16v-137q0 -22 -16 -22q-8 0 -20 5v-15zM184 563v-172h15v79h47v-79h15v172h-15v-79h-47v79h-15zM400 563v-172h15v78h38v14h-38v66h43v14h-58z M644 -200h-208l-8 14h-163l-8 -14h-207v303q14 0 23 9.5t9 22.5t-9.5 22.5t-22.5 9.5v554h100l30 79h334l29 -79h101v-921z" horiz-adv-x="694"/>
<glyph glyph-name="i.dot" d="M83 0v528h121v-528h-121zM78 609v115h130v-115h-130z" horiz-adv-x="286"/>
<glyph glyph-name="zero.num" d="M199 642q-36 0 -58.5 -35.5t-22.5 -97.5v-6q0 -63 22.5 -98.5t59.5 -35.5q36 0 59 35.5t23 98.5v6q0 61 -23.5 97t-59.5 36zM199 301q-68 0 -112 55.5t-44 146.5v4q0 91 44.5 147t112.5 56t113 -56t45 -146v-4q0 -90 -45.5 -146.5t-113.5 -56.5z"/>
<glyph glyph-name="one.num" d="M222 311h-72v318l-79 -30l-20 61l117 46h54v-395z" horiz-adv-x="325"/>
<glyph glyph-name="one.num_alt" d="M352 311h-280v64h109v254l-95 -35l-20 61l132 51h55v-331h99v-64z"/>
<glyph glyph-name="two.num" d="M55 311v63l138 115q39 33 54.5 54t15.5 45t-17.5 39.5t-43.5 15.5q-50 0 -93 -59l-52 41q30 43 64 64t85 21q59 0 96 -32.5t37 -83.5q0 -39 -19 -69t-66 -68l-100 -81h188v-65h-287z"/>
<glyph glyph-name="three.num" d="M197 301q-88 0 -152 64l44 53q49 -51 109 -51q28 0 48 16t20 42q0 28 -23 43t-61 15h-42l-12 45l113 106h-172v66h264v-57l-116 -106q54 -4 88 -32t34 -78q0 -56 -39 -91t-103 -35z"/>
<glyph glyph-name="four.num" d="M242 452v172l-133 -172h133zM308 394v-85h-67v85h-188l-10 68l190 243h75v-253h53v-58h-53z"/>
<glyph glyph-name="five.num" d="M196 301q-80 0 -150 60l44 55q54 -48 107 -48q34 0 55.5 18t21.5 46t-21.5 45t-56.5 17q-44 0 -78 -17l-46 28l15 195h241v-67h-181l-7 -88q28 11 70 11q59 0 98 -31.5t39 -88.5q0 -61 -41.5 -98t-109.5 -37z"/>
<glyph glyph-name="six.num" d="M199 364q33 0 53.5 19.5t20.5 50.5q0 32 -20 51t-53 19q-34 0 -54.5 -19t-20.5 -51q0 -31 21.5 -50.5t52.5 -19.5zM201 302q-64 0 -103 39q-50 50 -50 152v2q0 99 44 157t124 58q65 0 115 -41l-36 -57q-38 32 -81 32q-37 0 -62 -31.5t-28 -81.5q39 32 90 32 q55 0 92 -33.5t37 -91.5q0 -60 -40 -98t-102 -38z"/>
<glyph glyph-name="seven.num" d="M170 309h-82l169 323h-192v68h276v-56z"/>
<glyph glyph-name="eight.num" d="M200 481q-35 0 -57 -16.5t-22 -44.5q0 -27 21.5 -44t57.5 -17t57 17t21 44q0 28 -21.5 44.5t-56.5 16.5zM200 651q-31 0 -50 -15.5t-19 -40.5t19.5 -41.5t49.5 -16.5t49.5 16t19.5 42q0 25 -19.5 40.5t-49.5 15.5zM200 301q-66 0 -107 32t-41 84q0 65 66 96 q-55 29 -55 89q0 47 38.5 77.5t99.5 30.5q59 0 97.5 -31t38.5 -77q0 -58 -55 -89q66 -32 66 -95q0 -53 -41.5 -85t-106.5 -32z"/>
<glyph glyph-name="nine.num" d="M200 504q34 0 54.5 19.5t20.5 52.5q0 31 -21.5 51t-52.5 20q-32 0 -53 -19.5t-21 -51.5q0 -33 20 -52.5t53 -19.5zM199 710q62 0 103 -39q50 -52 50 -152v-2q0 -100 -44 -158t-124 -58q-67 0 -121 44l36 57q42 -35 87 -35q36 0 61.5 30.5t27.5 78.5q-38 -31 -88 -31 q-55 0 -92.5 33.5t-37.5 92.5q0 60 40.5 99.5t101.5 39.5z"/>
<glyph glyph-name="zero.den" d="M199 331q-36 0 -58.5 -35.5t-22.5 -97.5v-7q0 -62 22.5 -97.5t59.5 -35.5q36 0 59 35.5t23 97.5v7q0 61 -23.5 97t-59.5 36zM199 -10q-68 0 -112 55.5t-44 146.5v4q0 91 44.5 147t112.5 56t113 -56t45 -146v-4q0 -91 -45 -147t-114 -56z"/>
<glyph glyph-name="one.den" d="M222 0h-72v318l-79 -30l-20 61l117 45h54v-394z" horiz-adv-x="325"/>
<glyph glyph-name="one.den_alt" d="M352 0h-280v63h109v255l-95 -35l-20 61l132 50h55v-331h99v-63z"/>
<glyph glyph-name="two.den" d="M55 0v62l138 116q39 33 54.5 54t15.5 45t-17.5 39.5t-43.5 15.5q-50 0 -93 -59l-52 41q30 42 64.5 63.5t84.5 21.5q59 0 96 -32.5t37 -83.5q0 -39 -19 -69t-66 -68l-100 -82h188v-64h-287z"/>
<glyph glyph-name="three.den" d="M197 -10q-88 0 -152 64l44 53q49 -51 109 -51q28 0 48 16t20 42q0 27 -23 42t-61 15h-42l-12 46l113 106h-172v66h264v-57l-116 -106q54 -5 88 -32.5t34 -77.5q0 -56 -39 -91t-103 -35z"/>
<glyph glyph-name="four.den" d="M242 141v172l-133 -172h133zM308 83v-85h-67v85h-188l-10 67l190 243h75v-252h53v-58h-53z"/>
<glyph glyph-name="five.den" d="M196 -10q-80 0 -150 60l44 54q55 -47 107 -47q34 0 55.5 18t21.5 46t-21.5 44.5t-56.5 16.5q-42 0 -78 -16l-46 28l15 195h241v-67h-181l-7 -88q28 11 70 11q59 0 98 -31.5t39 -88.5q0 -61 -41.5 -98t-109.5 -37z"/>
<glyph glyph-name="six.den" d="M199 53q33 0 53.5 19.5t20.5 50.5q0 32 -20 51t-53 19q-34 0 -54.5 -19t-20.5 -51q0 -31 21.5 -50.5t52.5 -19.5zM201 -10q-62 0 -103 39q-50 52 -50 153v2q0 98 44 156.5t124 58.5q65 0 115 -41l-36 -57q-38 32 -81 32q-37 0 -62 -31.5t-28 -81.5q38 31 90 31 q55 0 92 -33t37 -91q0 -60 -40 -98.5t-102 -38.5z"/>
<glyph glyph-name="seven.den" d="M170 -2h-82l169 322h-192v69h276v-56z"/>
<glyph glyph-name="eight.den" d="M200 170q-35 0 -57 -17t-22 -44t21.5 -44t57.5 -17t57 16.5t21 44.5t-21.5 44.5t-56.5 16.5zM200 340q-31 0 -50 -15.5t-19 -40.5t19.5 -41.5t49.5 -16.5t49.5 16t19.5 42q0 25 -19.5 40.5t-49.5 15.5zM200 -10q-66 0 -107 31.5t-41 84.5q0 65 66 96q-55 29 -55 88 q0 47 38.5 78t99.5 31q60 0 98 -31t38 -78q0 -57 -55 -88q66 -32 66 -95q0 -53 -41.5 -85t-106.5 -32z"/>
<glyph glyph-name="nine.den" d="M200 192q34 0 54.5 19.5t20.5 52.5q0 32 -21.5 52t-52.5 20q-32 0 -53 -20t-21 -52q0 -33 20 -52.5t53 -19.5zM199 399q63 0 103 -40q50 -50 50 -152v-2q0 -100 -44 -157.5t-124 -57.5q-69 0 -121 44l36 57q40 -35 87 -35q37 0 62 30t27 79q-38 -31 -88 -31 q-55 0 -92.5 33t-37.5 93t40.5 99.5t101.5 39.5z"/>
<glyph glyph-name="caron.alt" d="M203 589l12 190h94v-3l-56 -187h-50z" horiz-adv-x="500"/>
<glyph glyph-name="acute.cap" d="M157 758l112 145l110 -48l-128 -97h-94z" horiz-adv-x="500"/>
<glyph glyph-name="hungarumlaut.cap" d="M231 758l112 145l106 -48l-127 -97h-91zM56 758l112 145l106 -48l-127 -97h-91z" horiz-adv-x="500"/>
<glyph glyph-name="grave.cap" d="M342 758h-95l-127 97l109 48z" horiz-adv-x="500"/>
<glyph glyph-name="circumflex.cap" d="M72 758l121 135h114l121 -135h-102l-77 58l-77 -58h-100z" horiz-adv-x="500"/>
<glyph glyph-name="caron.cap" d="M428 893l-121 -135h-114l-121 135h102l77 -57l77 57h100z" horiz-adv-x="500"/>
<glyph glyph-name="breve.cap" d="M250 756q-73 0 -120 35.5t-53 98.5h86q19 -50 87 -50t87 50h86q-6 -63 -53 -98.5t-120 -35.5z" horiz-adv-x="500"/>
<glyph glyph-name="tilde.cap" d="M329 758q-33 0 -89 22q-42 17 -58 17q-21 0 -32.5 -11t-23.5 -38l-67 21q17 62 42.5 92.5t69.5 30.5q30 0 89 -23q44 -16 58 -16q21 0 32.5 11t22.5 37l68 -20q-18 -62 -43.5 -92.5t-68.5 -30.5z" horiz-adv-x="500"/>
<glyph glyph-name="macron.cap" d="M71 769v90h359v-90h-359z" horiz-adv-x="500"/>
<glyph glyph-name="dieresis.cap" d="M85 758v112h125v-112h-125zM291 758v112h124v-112h-124z" horiz-adv-x="500"/>
<glyph glyph-name="dotaccent.cap" d="M186 758v112h128v-112h-128z" horiz-adv-x="500"/>
<glyph glyph-name="ring.cap" d="M250 803q28 0 46.5 17t18.5 42q0 24 -18.5 41t-46.5 17t-46 -17t-18 -41q0 -25 18 -42t46 -17zM250 756q-49 0 -84 30t-35 76q0 45 35 75t84 30t84 -30t35 -75q0 -46 -35 -76t-84 -30z" horiz-adv-x="500"/>
</font>
</defs>
</svg>
